<svg xmlns="http://www.w3.org/2000/svg" viewBox="0 0 469 397">
  <!-- All-white variant of hispa-logo.svg for use on dark backgrounds (matches the existing
       hispa-logo-white.png convention). Same geometry/layout, single #FFFFFF fill. -->

  <svg x="14" y="27" width="307" height="366" viewBox="0 0 183 218.907">
    <g transform="translate(0,4.454)"><path d="M 1.991 66.432 C -3.146 70.857 2.93 77.042 5.961 76.563 L 63.192 73.949 C 67.162 74.929 69.477 77.871 70.47 82.773 L 71.131 102.709 L 54.921 205.003 C 54.554 215.019 60.466 217.579 67.492 210.232 C 74.519 202.885 93.296 131.469 93.296 131.469 C 94.63 129.314 95.363 128.863 96.604 131.469 L 119.453 204.022 C 125.578 216.7 133.025 215.119 133.347 208.271 C 133.669 201.422 119.43 102.709 119.43 102.709 C 117.094 88.392 116.828 80.393 118.107 66.105 C 119.61 58.184 121.834 54.519 127.37 49.111 L 182.285 9.566 C 185.385 1.476 177.654 -1.546 173.353 0.742 L 88.334 36.692 L 1.991 66.432 Z" fill="#FFFFFF" fill-rule="nonzero"></path></g>
    <g transform="translate(75.23,0)"><path d="M 26.133 17.299 C 26.133 26.685 16.261 35.274 9.045 35.274 C 2.343 33.64 0.145 26.221 0.001 16.998 C 0.001 17.116 -0.001 16.881 0.001 16.998 C 0.525 7.418 9.37 -0.183 16.084 0.003 C 23.3 0.003 26.133 7.914 26.133 17.299 Z" fill="#FFFFFF" fill-rule="nonzero"></path></g>
  </svg>

  <svg x="163" y="154" width="201" height="240" viewBox="0 0 114 137.151">
    <path d="M 1.24 42.486 C -1.96 45.316 1.825 49.272 3.713 48.965 L 39.365 47.293 C 41.838 47.92 43.281 49.802 43.899 52.937 L 44.311 65.687 L 34.213 131.108 C 33.985 137.514 37.667 139.151 42.044 134.452 C 46.422 129.753 58.119 84.08 58.119 84.08 C 58.95 82.702 59.406 82.413 60.18 84.08 L 74.413 130.481 C 78.229 138.589 82.868 137.578 83.069 133.198 C 83.269 128.818 74.399 65.687 74.399 65.687 C 72.943 56.53 72.778 51.414 73.575 42.277 C 74.511 37.211 75.896 34.867 79.345 31.408 L 113.555 6.118 C 115.486 0.944 110.67 -0.989 107.991 0.474 L 55.028 23.466 L 1.24 42.486 Z" fill="#FFFFFF" fill-rule="nonzero"></path>
  </svg>
  <svg x="247" y="154" width="27" height="36.45" viewBox="0 0 26.133 35.274">
    <path d="M 26.133 17.299 C 26.133 26.685 16.261 35.274 9.045 35.274 C 2.343 33.64 0.145 26.221 0.001 16.998 C 0.001 17.116 -0.001 16.881 0.001 16.998 C 0.525 7.418 9.37 -0.183 16.084 0.003 C 23.3 0.003 26.133 7.914 26.133 17.299 Z" fill="#FFFFFF" fill-rule="nonzero"></path>
  </svg>

  <svg x="383" y="1" width="82" height="63" viewBox="0 0 49.5 38">
    <path d="M 14.5 14.5 C 14.398 13.155 19 0 20.5 0 C 22 0 25.294 7.674 27.5 11 C 34.759 8.91 38.457 7.285 43.5 2.5 C 43.587 8.393 41.854 11.487 34.5 16.5 L 34.5 20 C 41.147 24.667 44.248 24.976 49.5 24.5 C 47.315 26.869 43.503 28.326 37.5 29.5 C 32.261 30.861 25 29.5 25 29.5 C 25 29.5 18.125 37.609 18.5 38 C 16.095 37.187 15.673 35.714 15 33 L 14.5 24 C 7.19 23.166 4.15 21.351 0 16.5 C 5.169 16.003 14.602 15.845 14.5 14.5 Z" fill="#FFFFFF" fill-rule="nonzero"></path>
  </svg>

  <svg x="0" y="296" width="428" height="99" viewBox="0 0 257.5 60.028">
    <path d="M 91 41.5 L 86 41.5 L 85 54.5 C 93.34 58.945 95.004 58.312 97.5 59.5 C 99.996 60.688 118 59.5 118 59.5 C 127.951 56.877 139.5 50 138 40.5 C 136.5 31 127.825 25.057 104.5 24.5 C 104.5 24.5 90.5 19.5 92.5 13.5 C 93.461 10.616 98.369 6.603 105.5 5.5 C 111.135 4.629 118.91 5.848 122 6 C 129 6.344 124.778 14.18 126.5 16 L 131.5 16 L 133 4 L 125.5 0 L 100 0 C 87.352 0.536 82.761 12.255 83 13 C 82.5 23 88.873 28.524 97.5 31 L 120 35 C 127.458 39.043 129.726 41.808 127 48.5 C 113.413 59.834 92.277 51.046 91.055 50.524 C 91.021 50.615 91 50.614 91 50.5 C 91 50.5 91.019 50.508 91.055 50.524 C 91.324 49.816 92.424 43.538 91 41.5 Z" fill="#FFFFFF" fill-rule="nonzero"></path>
    <path d="M 143.5 59.5 L 155.5 59.5 L 155.5 36 C 185.24 37.291 196.661 34.62 201 19.5 C 198.439 0.18 183.083 0.062 155.5 0 L 143.5 1 L 143.5 59.5 Z M 155.5 6 L 155.5 29.5 L 178 29.5 C 189.5 28 193 26.5 193 17 C 193 7.5 186.5 6 177.5 5.5 L 155.5 6 Z" fill="#FFFFFF" fill-rule="evenodd"></path>
    <path d="M 58.5 0 L 48 0 L 48 26.5 L 10 26.5 L 10.5 1 L 0 1 L 0 59.5 L 11 60 L 10.5 31 L 48 32 L 48 60 L 58 59.5 L 58.5 0 Z" fill="#FFFFFF" fill-rule="nonzero"></path>
    <path d="M 65.5 59.5 L 77.5 59.5 L 76.5 0.5 L 65.5 0.5 L 65.5 59.5 Z" fill="#FFFFFF" fill-rule="nonzero"></path>
    <path d="M 193.5 60 L 202 60 L 210 42 L 237.5 42 L 244.5 60 L 257.5 60 L 231.5 1.5 L 217 1.5 L 193.5 60 Z M 236.5 36.5 L 211.5 36.5 L 224 8 L 236.5 36.5 Z" fill="#FFFFFF" fill-rule="evenodd"></path>
  </svg>
</svg>
