<svg xmlns="http://www.w3.org/2000/svg" width="114" height="137.151" viewBox="0 0 114 137.151" fill="none">
  <path d="M 1.24 42.486 C -1.96 45.316 1.825 49.272 3.713 48.965 L 39.365 47.293 C 41.838 47.92 43.281 49.802 43.899 52.937 L 44.311 65.687 L 34.213 131.108 C 33.985 137.514 37.667 139.151 42.044 134.452 C 46.422 129.753 58.119 84.08 58.119 84.08 C 58.95 82.702 59.406 82.413 60.18 84.08 L 74.413 130.481 C 78.229 138.589 82.868 137.578 83.069 133.198 C 83.269 128.818 74.399 65.687 74.399 65.687 C 72.943 56.53 72.778 51.414 73.575 42.277 C 74.511 37.211 75.896 34.867 79.345 31.408 L 113.555 6.118 C 115.486 0.944 110.67 -0.989 107.991 0.474 L 55.028 23.466 L 1.24 42.486 Z" fill="currentColor" fill-rule="nonzero"></path>
  <path d="M 107.991 0.474 L 108.19 0.933 L 108.211 0.924 L 108.23 0.913 L 107.991 0.474 Z M 1.24 42.486 L 1.073 42.015 L 0.982 42.047 L 0.909 42.112 L 1.24 42.486 Z M 3.713 48.965 L 3.69 48.466 L 3.661 48.467 L 3.633 48.472 L 3.713 48.965 Z M 55.028 23.466 L 55.194 23.937 L 55.211 23.931 L 55.227 23.925 L 55.028 23.466 Z M 113.555 6.118 L 113.852 6.52 L 113.971 6.432 L 114.023 6.293 L 113.555 6.118 Z M 39.365 47.293 L 39.488 46.809 L 39.416 46.79 L 39.342 46.794 L 39.365 47.293 Z M 43.899 52.937 L 44.399 52.921 L 44.398 52.88 L 44.39 52.84 L 43.899 52.937 Z M 44.311 65.687 L 44.806 65.763 L 44.813 65.717 L 44.811 65.67 L 44.311 65.687 Z M 34.213 131.108 L 33.719 131.031 L 33.715 131.061 L 33.714 131.09 L 34.213 131.108 Z M 58.119 84.08 L 57.691 83.822 L 57.653 83.884 L 57.634 83.956 L 58.119 84.08 Z M 60.18 84.08 L 60.658 83.933 L 60.648 83.9 L 60.633 83.869 L 60.18 84.08 Z M 74.413 130.481 L 73.935 130.627 L 73.945 130.661 L 73.961 130.694 L 74.413 130.481 Z M 74.399 65.687 L 74.895 65.617 L 74.893 65.608 L 74.399 65.687 Z M 73.575 42.277 L 73.083 42.186 L 73.079 42.21 L 73.077 42.234 L 73.575 42.277 Z M 79.345 31.408 L 79.048 31.006 L 79.018 31.029 L 78.991 31.055 L 79.345 31.408 Z M 1.24 42.486 L 0.909 42.112 C 0.023 42.895 -0.409 43.788 -0.487 44.692 C -0.564 45.586 -0.291 46.44 0.14 47.159 C 0.571 47.877 1.174 48.486 1.807 48.899 C 2.424 49.302 3.144 49.564 3.793 49.459 L 3.713 48.965 L 3.633 48.472 C 3.338 48.52 2.877 48.403 2.353 48.061 C 1.845 47.73 1.349 47.231 0.997 46.645 C 0.646 46.059 0.455 45.413 0.509 44.778 C 0.563 44.155 0.858 43.492 1.571 42.861 L 1.24 42.486 Z M 107.991 0.474 L 107.792 0.016 L 54.828 23.007 L 55.028 23.466 L 55.227 23.925 L 108.19 0.933 L 107.991 0.474 Z M 55.028 23.466 L 54.861 22.994 L 1.073 42.015 L 1.24 42.486 L 1.407 42.957 L 55.194 23.937 L 55.028 23.466 Z M 107.991 0.474 L 108.23 0.913 C 109.396 0.276 111.062 0.376 112.207 1.211 C 112.768 1.62 113.2 2.204 113.392 2.969 C 113.584 3.736 113.542 4.722 113.086 5.943 L 113.555 6.118 L 114.023 6.293 C 114.533 4.926 114.613 3.73 114.362 2.726 C 114.11 1.719 113.533 0.941 112.796 0.403 C 111.346 -0.655 109.264 -0.791 107.751 0.036 L 107.991 0.474 Z M 3.713 48.965 L 3.737 49.465 L 39.389 47.793 L 39.365 47.293 L 39.342 46.794 L 3.69 48.466 L 3.713 48.965 Z M 39.365 47.293 L 39.242 47.778 C 40.378 48.066 41.26 48.635 41.936 49.485 C 42.618 50.344 43.109 51.516 43.409 53.033 L 43.899 52.937 L 44.39 52.84 C 44.071 51.222 43.531 49.886 42.719 48.864 C 41.901 47.833 40.826 47.148 39.488 46.809 L 39.365 47.293 Z M 43.899 52.937 L 43.399 52.953 L 43.812 65.703 L 44.311 65.687 L 44.811 65.67 L 44.399 52.921 L 43.899 52.937 Z M 44.311 65.687 L 43.817 65.61 L 33.719 131.031 L 34.213 131.108 L 34.707 131.184 L 44.806 65.763 L 44.311 65.687 Z M 34.213 131.108 L 33.714 131.09 C 33.655 132.735 33.845 134.111 34.259 135.175 C 34.674 136.241 35.327 137.024 36.203 137.403 C 37.081 137.783 38.091 137.718 39.138 137.273 C 40.18 136.829 41.286 135.999 42.41 134.793 L 42.044 134.452 L 41.679 134.111 C 40.614 135.254 39.619 135.981 38.746 136.353 C 37.878 136.722 37.162 136.728 36.6 136.485 C 36.037 136.242 35.539 135.708 35.191 134.812 C 34.842 133.914 34.657 132.684 34.713 131.126 L 34.213 131.108 Z M 42.044 134.452 L 42.41 134.793 C 43.024 134.134 43.714 132.83 44.45 131.138 C 45.196 129.423 46.017 127.239 46.875 124.763 C 48.592 119.808 50.467 113.648 52.203 107.643 C 53.94 101.636 55.54 95.776 56.706 91.419 C 57.289 89.24 57.763 87.437 58.091 86.178 C 58.256 85.548 58.384 85.055 58.471 84.719 C 58.514 84.551 58.547 84.422 58.569 84.335 C 58.581 84.292 58.589 84.259 58.595 84.237 C 58.597 84.226 58.6 84.218 58.601 84.212 C 58.602 84.209 58.602 84.207 58.603 84.206 C 58.603 84.205 58.603 84.205 58.603 84.204 C 58.603 84.204 58.603 84.204 58.119 84.08 C 57.634 83.956 57.634 83.956 57.634 83.956 C 57.634 83.957 57.634 83.957 57.634 83.958 C 57.634 83.959 57.633 83.961 57.632 83.964 C 57.631 83.969 57.629 83.978 57.626 83.989 C 57.62 84.01 57.612 84.043 57.601 84.086 C 57.579 84.173 57.546 84.301 57.502 84.469 C 57.416 84.804 57.288 85.297 57.124 85.925 C 56.796 87.182 56.322 88.984 55.74 91.16 C 54.575 95.514 52.977 101.366 51.243 107.365 C 49.508 113.365 47.638 119.505 45.93 124.435 C 45.076 126.901 44.265 129.057 43.533 130.739 C 42.792 132.444 42.16 133.595 41.679 134.111 L 42.044 134.452 Z M 58.119 84.08 L 58.547 84.338 C 58.752 83.998 58.917 83.754 59.058 83.595 C 59.21 83.422 59.263 83.431 59.228 83.435 C 59.153 83.443 59.16 83.386 59.274 83.514 C 59.389 83.645 59.538 83.886 59.726 84.29 L 60.18 84.08 L 60.633 83.869 C 60.434 83.441 60.236 83.093 60.023 82.851 C 59.807 82.608 59.504 82.397 59.114 82.441 C 58.765 82.481 58.499 82.716 58.308 82.933 C 58.104 83.164 57.901 83.473 57.691 83.822 L 58.119 84.08 Z M 60.18 84.08 L 59.702 84.226 L 73.935 130.627 L 74.413 130.481 L 74.891 130.334 L 60.658 83.933 L 60.18 84.08 Z M 74.413 130.481 L 73.961 130.694 C 74.931 132.757 75.967 134.266 76.993 135.295 C 78.016 136.321 79.056 136.893 80.033 137.018 C 81.028 137.146 81.909 136.8 82.541 136.095 C 83.16 135.402 83.514 134.396 83.568 133.221 L 83.069 133.198 L 82.569 133.175 C 82.523 134.189 82.221 134.952 81.795 135.428 C 81.382 135.89 80.826 136.112 80.16 136.026 C 79.475 135.938 78.627 135.517 77.701 134.589 C 76.778 133.663 75.803 132.259 74.865 130.268 L 74.413 130.481 Z M 83.069 133.198 L 83.568 133.221 C 83.595 132.627 83.473 131.116 83.251 128.988 C 83.027 126.838 82.697 124.009 82.295 120.74 C 81.491 114.203 80.401 105.899 79.305 97.733 C 78.208 89.567 77.106 81.538 76.277 75.551 C 75.863 72.557 75.517 70.074 75.275 68.339 C 75.154 67.471 75.059 66.791 74.994 66.327 C 74.962 66.096 74.937 65.918 74.92 65.798 C 74.912 65.739 74.905 65.693 74.901 65.663 C 74.899 65.648 74.897 65.636 74.896 65.629 C 74.896 65.625 74.895 65.622 74.895 65.62 C 74.895 65.619 74.895 65.618 74.895 65.618 C 74.894 65.617 74.894 65.617 74.399 65.687 C 73.904 65.756 73.904 65.756 73.904 65.757 C 73.904 65.757 73.904 65.758 73.905 65.759 C 73.905 65.761 73.905 65.764 73.906 65.768 C 73.907 65.775 73.908 65.787 73.911 65.802 C 73.915 65.832 73.921 65.878 73.93 65.937 C 73.946 66.057 73.971 66.234 74.004 66.466 C 74.069 66.929 74.164 67.61 74.285 68.477 C 74.527 70.212 74.873 72.695 75.287 75.688 C 76.115 81.674 77.218 89.702 78.314 97.866 C 79.41 106.031 80.499 114.331 81.302 120.862 C 81.704 124.129 82.033 126.95 82.256 129.091 C 82.481 131.254 82.592 132.674 82.569 133.175 L 83.069 133.198 Z M 74.399 65.687 L 74.893 65.608 C 73.444 56.492 73.28 51.418 74.073 42.32 L 73.575 42.277 L 73.077 42.234 C 72.277 51.411 72.443 56.568 73.906 65.765 L 74.399 65.687 Z M 73.575 42.277 L 74.067 42.368 C 74.529 39.865 75.097 38.068 75.957 36.478 C 76.819 34.887 77.99 33.476 79.699 31.761 L 79.345 31.408 L 78.991 31.055 C 77.252 32.8 76.005 34.29 75.078 36.002 C 74.15 37.716 73.557 39.624 73.083 42.186 L 73.575 42.277 Z M 79.345 31.408 L 79.643 31.81 L 113.852 6.52 L 113.555 6.118 L 113.258 5.716 L 79.048 31.006 L 79.345 31.408 Z" fill="currentColor" fill-rule="nonzero"></path>
</svg>