<svg xmlns="http://www.w3.org/2000/svg" width="183" height="214.453" viewBox="0 0 183 214.453" fill="none">
  <path d="M 1.991 66.432 C -3.146 70.857 2.93 77.042 5.961 76.563 L 63.192 73.949 C 67.162 74.929 69.477 77.871 70.47 82.773 L 71.131 102.709 L 54.921 205.003 C 54.554 215.019 60.466 217.579 67.492 210.232 C 74.519 202.885 93.296 131.469 93.296 131.469 C 94.63 129.314 95.363 128.863 96.604 131.469 L 119.453 204.022 C 125.578 216.7 133.025 215.119 133.347 208.271 C 133.669 201.422 119.43 102.709 119.43 102.709 C 117.094 88.392 116.828 80.393 118.107 66.105 C 119.61 58.184 121.834 54.519 127.37 49.111 L 182.285 9.566 C 185.385 1.476 177.654 -1.546 173.353 0.742 L 88.334 36.692 L 1.991 66.432 Z" fill="currentColor" fill-rule="nonzero"></path>
  <path d="M 173.353 0.742 L 173.548 1.202 L 173.569 1.194 L 173.588 1.183 L 173.353 0.742 Z M 1.991 66.432 L 1.828 65.959 L 1.737 65.991 L 1.664 66.053 L 1.991 66.432 Z M 5.961 76.563 L 5.938 76.064 L 5.91 76.065 L 5.883 76.07 L 5.961 76.563 Z M 88.334 36.692 L 88.497 37.164 L 88.513 37.159 L 88.528 37.152 L 88.334 36.692 Z M 182.285 9.566 L 182.578 9.972 L 182.699 9.884 L 182.752 9.745 L 182.285 9.566 Z M 63.192 73.949 L 63.312 73.463 L 63.241 73.446 L 63.169 73.449 L 63.192 73.949 Z M 70.47 82.773 L 70.969 82.756 L 70.968 82.715 L 70.96 82.674 L 70.47 82.773 Z M 71.131 102.709 L 71.625 102.787 L 71.633 102.74 L 71.631 102.692 L 71.131 102.709 Z M 54.921 205.003 L 54.428 204.924 L 54.423 204.954 L 54.422 204.984 L 54.921 205.003 Z M 93.296 131.469 L 92.871 131.206 L 92.832 131.269 L 92.812 131.342 L 93.296 131.469 Z M 96.604 131.469 L 97.081 131.319 L 97.071 131.285 L 97.056 131.254 L 96.604 131.469 Z M 119.453 204.022 L 118.976 204.172 L 118.987 204.207 L 119.002 204.24 L 119.453 204.022 Z M 119.43 102.709 L 119.925 102.637 L 119.924 102.628 L 119.43 102.709 Z M 118.107 66.105 L 117.616 66.012 L 117.611 66.036 L 117.609 66.061 L 118.107 66.105 Z M 127.37 49.111 L 127.078 48.705 L 127.047 48.727 L 127.021 48.753 L 127.37 49.111 Z M 1.991 66.432 L 1.664 66.053 C 0.293 67.234 -0.362 68.566 -0.48 69.905 C -0.597 71.233 -0.182 72.512 0.487 73.599 C 1.156 74.685 2.094 75.605 3.071 76.226 C 4.034 76.838 5.109 77.204 6.039 77.057 L 5.961 76.563 L 5.883 76.07 C 5.297 76.162 4.476 75.934 3.607 75.382 C 2.754 74.84 1.926 74.028 1.339 73.074 C 0.752 72.121 0.422 71.055 0.516 69.993 C 0.608 68.943 1.12 67.842 2.317 66.811 L 1.991 66.432 Z M 173.353 0.742 L 173.159 0.281 L 88.139 36.231 L 88.334 36.692 L 88.528 37.152 L 173.548 1.202 L 173.353 0.742 Z M 88.334 36.692 L 88.171 36.219 L 1.828 65.959 L 1.991 66.432 L 2.154 66.905 L 88.497 37.164 L 88.334 36.692 Z M 173.353 0.742 L 173.588 1.183 C 175.569 0.13 178.374 0.297 180.305 1.67 C 181.259 2.348 181.994 3.316 182.318 4.577 C 182.643 5.84 182.565 7.439 181.819 9.387 L 182.285 9.566 L 182.752 9.745 C 183.556 7.648 183.674 5.835 183.287 4.328 C 182.899 2.818 182.013 1.657 180.884 0.855 C 178.65 -0.734 175.439 -0.934 173.119 0.3 L 173.353 0.742 Z M 5.961 76.563 L 5.983 77.063 L 63.215 74.448 L 63.192 73.949 L 63.169 73.449 L 5.938 76.064 L 5.961 76.563 Z M 63.192 73.949 L 63.072 74.434 C 64.958 74.9 66.433 75.825 67.56 77.206 C 68.692 78.595 69.494 80.473 69.98 82.872 L 70.47 82.773 L 70.96 82.674 C 70.453 80.171 69.601 78.127 68.335 76.574 C 67.063 75.014 65.395 73.978 63.312 73.463 L 63.192 73.949 Z M 70.47 82.773 L 69.97 82.79 L 70.632 102.725 L 71.131 102.709 L 71.631 102.692 L 70.969 82.756 L 70.47 82.773 Z M 71.131 102.709 L 70.638 102.631 L 54.428 204.924 L 54.921 205.003 L 55.415 205.081 L 71.625 102.787 L 71.131 102.709 Z M 54.921 205.003 L 54.422 204.984 C 54.328 207.533 54.632 209.646 55.278 211.264 C 55.926 212.886 56.93 214.037 58.24 214.589 C 59.55 215.141 61.08 215.058 62.704 214.385 C 64.324 213.713 66.067 212.446 67.854 210.577 L 67.492 210.232 L 67.131 209.886 C 65.405 211.691 63.773 212.859 62.321 213.461 C 60.872 214.061 59.629 214.089 58.629 213.668 C 57.628 213.246 56.784 212.339 56.207 210.893 C 55.628 209.444 55.331 207.481 55.421 205.021 L 54.921 205.003 Z M 67.492 210.232 L 67.854 210.577 C 68.8 209.588 69.892 207.592 71.075 204.942 C 72.269 202.269 73.583 198.863 74.96 194.993 C 77.712 187.252 80.721 177.626 83.508 168.237 C 86.296 158.847 88.864 149.687 90.734 142.875 C 91.67 139.469 92.431 136.649 92.958 134.681 C 93.222 133.697 93.427 132.926 93.567 132.401 C 93.636 132.138 93.69 131.937 93.725 131.802 C 93.743 131.734 93.757 131.682 93.766 131.648 C 93.77 131.631 93.774 131.618 93.776 131.609 C 93.777 131.605 93.778 131.601 93.779 131.599 C 93.779 131.598 93.779 131.597 93.779 131.597 C 93.78 131.596 93.78 131.596 93.296 131.469 C 92.812 131.342 92.812 131.342 92.812 131.342 C 92.812 131.343 92.812 131.344 92.812 131.345 C 92.811 131.347 92.81 131.35 92.809 131.355 C 92.807 131.363 92.803 131.376 92.799 131.393 C 92.79 131.427 92.776 131.479 92.759 131.546 C 92.723 131.681 92.67 131.882 92.6 132.144 C 92.461 132.669 92.256 133.439 91.993 134.422 C 91.466 136.389 90.705 139.206 89.77 142.61 C 87.901 149.418 85.335 158.571 82.55 167.953 C 79.764 177.336 76.761 186.942 74.017 194.658 C 72.645 198.517 71.34 201.895 70.162 204.534 C 68.973 207.196 67.942 209.039 67.131 209.886 L 67.492 210.232 Z M 93.296 131.469 L 93.721 131.732 C 94.052 131.198 94.328 130.798 94.572 130.529 C 94.826 130.248 94.976 130.188 95.04 130.181 C 95.067 130.178 95.17 130.171 95.381 130.403 C 95.595 130.638 95.848 131.045 96.153 131.684 L 96.604 131.469 L 97.056 131.254 C 96.739 130.59 96.436 130.076 96.121 129.73 C 95.804 129.381 95.408 129.133 94.93 129.187 C 94.489 129.236 94.128 129.53 93.831 129.858 C 93.523 130.198 93.207 130.663 92.871 131.206 L 93.296 131.469 Z M 96.604 131.469 L 96.127 131.619 L 118.976 204.172 L 119.453 204.022 L 119.929 203.872 L 97.081 131.319 L 96.604 131.469 Z M 119.453 204.022 L 119.002 204.24 C 120.551 207.446 122.196 209.777 123.813 211.355 C 125.427 212.932 127.038 213.781 128.514 213.965 C 130.007 214.152 131.32 213.651 132.269 212.617 C 133.208 211.596 133.762 210.09 133.846 208.294 L 133.347 208.271 L 132.847 208.247 C 132.771 209.876 132.273 211.136 131.533 211.941 C 130.804 212.734 129.813 213.12 128.638 212.973 C 127.446 212.824 126.026 212.119 124.512 210.64 C 123 209.164 121.416 206.938 119.903 203.805 L 119.453 204.022 Z M 133.347 208.271 L 133.846 208.294 C 133.889 207.39 133.695 205.053 133.339 201.716 C 132.98 198.356 132.449 193.935 131.804 188.825 C 130.514 178.605 128.765 165.621 127.005 152.853 C 125.245 140.085 123.475 127.531 122.145 118.169 C 121.48 113.489 120.925 109.606 120.537 106.893 C 120.342 105.536 120.189 104.473 120.085 103.748 C 120.033 103.386 119.993 103.108 119.966 102.921 C 119.953 102.827 119.943 102.757 119.936 102.709 C 119.932 102.685 119.93 102.667 119.928 102.655 C 119.927 102.649 119.926 102.645 119.926 102.642 C 119.926 102.64 119.926 102.639 119.926 102.639 C 119.925 102.638 119.925 102.637 119.43 102.709 C 118.936 102.78 118.936 102.781 118.936 102.781 C 118.936 102.782 118.936 102.783 118.936 102.785 C 118.937 102.788 118.937 102.792 118.938 102.798 C 118.94 102.81 118.943 102.828 118.946 102.852 C 118.953 102.899 118.963 102.97 118.976 103.063 C 119.003 103.25 119.043 103.528 119.095 103.89 C 119.2 104.615 119.352 105.679 119.547 107.035 C 119.935 109.747 120.49 113.63 121.155 118.31 C 122.485 127.671 124.255 140.224 126.014 152.99 C 127.774 165.757 129.523 178.736 130.812 188.95 C 131.457 194.058 131.986 198.472 132.344 201.822 C 132.705 205.194 132.885 207.439 132.847 208.247 L 133.347 208.271 Z M 119.43 102.709 L 119.924 102.628 C 117.594 88.353 117.33 80.396 118.605 66.15 L 118.107 66.105 L 117.609 66.061 C 116.327 80.389 116.593 88.431 118.937 102.789 L 119.43 102.709 Z M 118.107 66.105 L 118.598 66.198 C 119.344 62.269 120.262 59.428 121.663 56.909 C 123.065 54.387 124.966 52.158 127.719 49.468 L 127.37 49.111 L 127.021 48.753 C 124.238 51.472 122.259 53.779 120.789 56.423 C 119.318 59.068 118.373 62.021 117.616 66.012 L 118.107 66.105 Z M 127.37 49.111 L 127.662 49.516 L 182.578 9.972 L 182.285 9.566 L 181.993 9.16 L 127.078 48.705 L 127.37 49.111 Z" fill="currentColor" fill-rule="nonzero"></path>
</svg>