<svg xmlns="http://www.w3.org/2000/svg" width="257.500" height="60.028" viewBox="0 0 257.500 60.028" fill="none">
  <path d="M 91 41.5 L 86 41.5 L 85 54.5 C 93.34 58.945 95.004 58.312 97.5 59.5 C 99.996 60.688 118 59.5 118 59.5 C 127.951 56.877 139.5 50 138 40.5 C 136.5 31 127.825 25.057 104.5 24.5 C 104.5 24.5 90.5 19.5 92.5 13.5 C 93.461 10.616 98.369 6.603 105.5 5.5 C 111.135 4.629 118.91 5.848 122 6 C 129 6.344 124.778 14.18 126.5 16 L 131.5 16 L 133 4 L 125.5 0 L 100 0 C 87.352 0.536 82.761 12.255 83 13 C 82.5 23 88.873 28.524 97.5 31 L 120 35 C 127.458 39.043 129.726 41.808 127 48.5 C 113.413 59.834 92.277 51.046 91.055 50.524 C 91.021 50.615 91 50.614 91 50.5 C 91 50.5 91.019 50.508 91.055 50.524 C 91.324 49.816 92.424 43.538 91 41.5 Z" fill="currentColor" fill-rule="nonzero"></path>
  <path d="M 143.5 59.5 L 155.5 59.5 L 155.5 36 C 185.24 37.291 196.661 34.62 201 19.5 C 198.439 0.18 183.083 0.062 155.5 0 L 143.5 1 L 143.5 59.5 Z M 155.5 6 L 155.5 29.5 L 178 29.5 C 189.5 28 193 26.5 193 17 C 193 7.5 186.5 6 177.5 5.5 L 155.5 6 Z" fill="currentColor" fill-rule="evenodd"></path>
  <path d="M 58.5 0 L 48 0 L 48 26.5 L 10 26.5 L 10.5 1 L 0 1 L 0 59.5 L 11 60 L 10.5 31 L 48 32 L 48 60 L 58 59.5 L 58.5 0 Z" fill="currentColor" fill-rule="nonzero"></path>
  <path d="M 65.5 59.5 L 77.5 59.5 L 76.5 0.5 L 65.5 0.5 L 65.5 59.5 Z" fill="currentColor" fill-rule="nonzero"></path>
  <path d="M 193.5 60 L 202 60 L 210 42 L 237.5 42 L 244.5 60 L 257.5 60 L 231.5 1.5 L 217 1.5 L 193.5 60 Z M 236.5 36.5 L 211.5 36.5 L 224 8 L 236.5 36.5 Z" fill="currentColor" fill-rule="evenodd"></path>
  <path d="M 143.5 59.5 L 143 59.5 L 143 60 L 143.5 60 L 143.5 59.5 Z M 155.5 59.5 L 155.5 60 L 156 60 L 156 59.5 L 155.5 59.5 Z M 155.5 36 L 155.522 35.5 L 155 35.478 L 155 36 L 155.5 36 Z M 201 19.5 L 201.481 19.638 L 201.509 19.538 L 201.496 19.434 L 201 19.5 Z M 155.5 0 L 155.501 -0.5 L 155.48 -0.5 L 155.458 -0.498 L 155.5 0 Z M 143.5 1 L 143.459 0.502 L 143 0.54 L 143 1 L 143.5 1 Z M 91 41.5 L 91.41 41.214 L 91.261 41 L 91 41 L 91 41.5 Z M 86 41.5 L 86 41 L 85.537 41 L 85.501 41.462 L 86 41.5 Z M 85 54.5 L 84.501 54.462 L 84.476 54.788 L 84.765 54.941 L 85 54.5 Z M 118 59.5 L 118.033 59.999 L 118.081 59.996 L 118.127 59.983 L 118 59.5 Z M 104.5 24.5 L 104.332 24.971 L 104.408 24.998 L 104.488 25 L 104.5 24.5 Z M 92.5 13.5 L 92.974 13.658 L 92.5 13.5 Z M 126.5 16 L 126.137 16.344 L 126.285 16.5 L 126.5 16.5 L 126.5 16 Z M 131.5 16 L 131.5 16.5 L 131.941 16.5 L 131.996 16.062 L 131.5 16 Z M 133 4 L 133.496 4.062 L 133.539 3.721 L 133.235 3.559 L 133 4 Z M 125.5 0 L 125.735 -0.441 L 125.625 -0.5 L 125.5 -0.5 L 125.5 0 Z M 100 0 L 100 -0.5 L 99.989 -0.5 L 99.979 -0.5 L 100 0 Z M 83 13 L 83.499 13.025 L 83.504 12.934 L 83.476 12.847 L 83 13 Z M 97.5 31 L 97.362 31.481 L 97.387 31.488 L 97.412 31.492 L 97.5 31 Z M 120 35 L 120.238 34.56 L 120.167 34.522 L 120.088 34.508 L 120 35 Z M 127 48.5 L 127.32 48.884 L 127.416 48.804 L 127.463 48.689 L 127 48.5 Z M 122 6 L 122.025 5.501 L 122 6 Z M 105.5 5.5 L 105.576 5.994 L 105.5 5.5 Z M 91 50.5 L 91.201 50.042 L 90.5 49.734 L 90.5 50.5 L 91 50.5 Z M 155.5 29.5 L 155 29.5 L 155 30 L 155.5 30 L 155.5 29.5 Z M 155.5 6 L 155.489 5.5 L 155 5.511 L 155 6 L 155.5 6 Z M 177.5 5.5 L 177.528 5.001 L 177.508 5 L 177.489 5 L 177.5 5.5 Z M 178 29.5 L 178 30 L 178.032 30 L 178.065 29.996 L 178 29.5 Z M 193.5 60 L 193.036 59.814 L 192.76 60.5 L 193.5 60.5 L 193.5 60 Z M 202 60 L 202 60.5 L 202.325 60.5 L 202.457 60.203 L 202 60 Z M 210 42 L 210 41.5 L 209.675 41.5 L 209.543 41.797 L 210 42 Z M 237.5 42 L 237.966 41.819 L 237.842 41.5 L 237.5 41.5 L 237.5 42 Z M 244.5 60 L 244.034 60.181 L 244.158 60.5 L 244.5 60.5 L 244.5 60 Z M 257.5 60 L 257.5 60.5 L 258.269 60.5 L 257.957 59.797 L 257.5 60 Z M 231.5 1.5 L 231.957 1.297 L 231.825 1 L 231.5 1 L 231.5 1.5 Z M 217 1.5 L 217 1 L 216.662 1 L 216.536 1.314 L 217 1.5 Z M 211.5 36.5 L 211.042 36.299 L 210.735 37 L 211.5 37 L 211.5 36.5 Z M 236.5 36.5 L 236.5 37 L 237.265 37 L 236.958 36.299 L 236.5 36.5 Z M 224 8 L 224.458 7.799 L 224 6.755 L 223.542 7.799 L 224 8 Z M 65.5 59.5 L 65 59.5 L 65 60 L 65.5 60 L 65.5 59.5 Z M 77.5 59.5 L 77.5 60 L 78.009 60 L 78 59.492 L 77.5 59.5 Z M 76.5 0.5 L 77 0.492 L 76.992 0 L 76.5 0 L 76.5 0.5 Z M 65.5 0.5 L 65.5 0 L 65 0 L 65 0.5 L 65.5 0.5 Z M 58.5 0 L 59 0.004 L 59.004 -0.5 L 58.5 -0.5 L 58.5 0 Z M 48 0 L 48 -0.5 L 47.5 -0.5 L 47.5 0 L 48 0 Z M 48 26.5 L 48 27 L 48.5 27 L 48.5 26.5 L 48 26.5 Z M 10 26.5 L 9.5 26.49 L 9.49 27 L 10 27 L 10 26.5 Z M 10.5 1 L 11 1.01 L 11.01 0.5 L 10.5 0.5 L 10.5 1 Z M 0 1 L 0 0.5 L -0.5 0.5 L -0.5 1 L 0 1 Z M 0 59.5 L -0.5 59.5 L -0.5 59.978 L -0.023 59.999 L 0 59.5 Z M 11 60 L 10.977 60.499 L 11.509 60.524 L 11.5 59.991 L 11 60 Z M 10.5 31 L 10.513 30.5 L 9.991 30.486 L 10 31.009 L 10.5 31 Z M 48 32 L 48.5 32 L 48.5 31.513 L 48.013 31.5 L 48 32 Z M 48 60 L 47.5 60 L 47.5 60.526 L 48.025 60.499 L 48 60 Z M 58 59.5 L 58.025 59.999 L 58.496 59.976 L 58.5 59.504 L 58 59.5 Z M 143.5 59.5 L 143.5 60 L 155.5 60 L 155.5 59.5 L 155.5 59 L 143.5 59 L 143.5 59.5 Z M 155.5 59.5 L 156 59.5 L 156 36 L 155.5 36 L 155 36 L 155 59.5 L 155.5 59.5 Z M 155.5 36 L 155.478 36.5 C 170.341 37.145 180.72 36.808 187.935 34.378 C 191.558 33.158 194.399 31.406 196.612 28.975 C 198.823 26.547 200.381 23.47 201.481 19.638 L 201 19.5 L 200.519 19.362 C 199.449 23.09 197.953 26.017 195.872 28.302 C 193.794 30.585 191.108 32.254 187.616 33.431 C 180.601 35.793 170.4 36.147 155.522 35.5 L 155.5 36 Z M 201 19.5 L 201.496 19.434 C 200.847 14.54 199.382 10.815 197.076 7.995 C 194.77 5.173 191.656 3.3 187.787 2.053 C 180.088 -0.429 169.258 -0.469 155.501 -0.5 L 155.5 0 L 155.499 0.5 C 169.324 0.531 179.965 0.582 187.48 3.004 C 191.217 4.209 194.147 5.992 196.302 8.628 C 198.458 11.266 199.873 14.8 200.504 19.566 L 201 19.5 Z M 155.5 0 L 155.458 -0.498 L 143.459 0.502 L 143.5 1 L 143.542 1.498 L 155.542 0.498 L 155.5 0 Z M 143.5 1 L 143 1 L 143 59.5 L 143.5 59.5 L 144 59.5 L 144 1 L 143.5 1 Z M 91 41.5 L 91 41 L 86 41 L 86 41.5 L 86 42 L 91 42 L 91 41.5 Z M 86 41.5 L 85.501 41.462 L 84.501 54.462 L 85 54.5 L 85.499 54.538 L 86.499 41.538 L 86 41.5 Z M 85 54.5 L 84.765 54.941 C 88.957 57.176 91.488 58.142 93.294 58.699 C 94.187 58.974 94.914 59.152 95.533 59.324 C 96.158 59.498 96.699 59.672 97.285 59.951 L 97.5 59.5 L 97.715 59.049 C 97.053 58.734 96.45 58.541 95.801 58.361 C 95.144 58.178 94.466 58.014 93.589 57.744 C 91.854 57.209 89.383 56.27 85.235 54.059 L 85 54.5 Z M 97.5 59.5 L 97.285 59.951 C 97.681 60.14 98.313 60.257 99.042 60.338 C 99.793 60.422 100.716 60.473 101.742 60.501 C 103.796 60.557 106.291 60.52 108.701 60.445 C 111.113 60.371 113.446 60.259 115.175 60.166 C 116.039 60.12 116.754 60.078 117.252 60.048 C 117.501 60.033 117.696 60.02 117.829 60.012 C 117.895 60.008 117.946 60.005 117.981 60.002 C 117.998 60.001 118.011 60 118.02 60 C 118.024 60 118.027 59.999 118.03 59.999 C 118.031 59.999 118.031 59.999 118.032 59.999 C 118.032 59.999 118.033 59.999 118.033 59.999 C 118.033 59.999 118.033 59.999 118 59.5 C 117.967 59.001 117.967 59.001 117.967 59.001 C 117.967 59.001 117.967 59.001 117.966 59.001 C 117.966 59.001 117.965 59.001 117.964 59.001 C 117.962 59.001 117.959 59.002 117.954 59.002 C 117.946 59.002 117.933 59.003 117.916 59.004 C 117.882 59.007 117.832 59.01 117.766 59.014 C 117.633 59.022 117.439 59.035 117.191 59.05 C 116.695 59.08 115.983 59.121 115.121 59.168 C 113.396 59.261 111.072 59.372 108.671 59.446 C 106.268 59.52 103.794 59.557 101.77 59.502 C 100.757 59.474 99.864 59.423 99.153 59.344 C 98.42 59.263 97.943 59.157 97.715 59.049 L 97.5 59.5 Z M 118 59.5 L 118.127 59.983 C 123.151 58.659 128.597 56.258 132.611 52.965 C 136.623 49.675 139.283 45.42 138.494 40.422 L 138 40.5 L 137.506 40.578 C 138.217 45.08 135.853 49.014 131.977 52.192 C 128.104 55.369 122.801 57.718 117.873 59.017 L 118 59.5 Z M 138 40.5 L 138.494 40.422 C 137.718 35.51 135.073 31.517 129.665 28.703 C 124.292 25.908 116.201 24.28 104.512 24 L 104.5 24.5 L 104.488 25 C 116.124 25.278 124.033 26.9 129.203 29.59 C 134.339 32.262 136.782 35.99 137.506 40.578 L 138 40.5 Z M 104.5 24.5 C 104.668 24.029 104.668 24.029 104.668 24.029 C 104.668 24.029 104.668 24.029 104.668 24.029 C 104.668 24.029 104.667 24.029 104.666 24.028 C 104.665 24.028 104.663 24.027 104.66 24.026 C 104.653 24.024 104.644 24.02 104.631 24.016 C 104.606 24.007 104.568 23.993 104.518 23.974 C 104.418 23.937 104.272 23.881 104.085 23.808 C 103.711 23.662 103.178 23.445 102.545 23.167 C 101.276 22.61 99.611 21.808 98.012 20.824 C 96.407 19.836 94.902 18.685 93.924 17.441 C 92.951 16.202 92.547 14.939 92.974 13.658 L 92.5 13.5 L 92.026 13.342 C 91.453 15.061 92.049 16.673 93.138 18.059 C 94.223 19.44 95.843 20.664 97.488 21.676 C 99.139 22.692 100.849 23.515 102.143 24.083 C 102.79 24.367 103.336 24.588 103.72 24.739 C 103.912 24.814 104.064 24.872 104.168 24.911 C 104.221 24.93 104.261 24.945 104.289 24.955 C 104.302 24.96 104.313 24.964 104.32 24.967 C 104.324 24.968 104.327 24.969 104.328 24.97 C 104.329 24.97 104.33 24.97 104.331 24.971 C 104.331 24.971 104.331 24.971 104.331 24.971 C 104.332 24.971 104.332 24.971 104.5 24.5 Z M 126.5 16 L 126.5 16.5 L 131.5 16.5 L 131.5 16 L 131.5 15.5 L 126.5 15.5 L 126.5 16 Z M 131.5 16 L 131.996 16.062 L 133.496 4.062 L 133 4 L 132.504 3.938 L 131.004 15.938 L 131.5 16 Z M 133 4 L 133.235 3.559 L 125.735 -0.441 L 125.5 0 L 125.265 0.441 L 132.765 4.441 L 133 4 Z M 125.5 0 L 125.5 -0.5 L 100 -0.5 L 100 0 L 100 0.5 L 125.5 0.5 L 125.5 0 Z M 100 0 L 99.979 -0.5 C 93.486 -0.224 89.057 2.926 86.291 6.093 C 84.909 7.674 83.939 9.263 83.328 10.51 C 83.022 11.132 82.804 11.676 82.668 12.095 C 82.6 12.304 82.55 12.49 82.521 12.646 C 82.507 12.723 82.496 12.801 82.492 12.875 C 82.489 12.939 82.489 13.044 82.524 13.153 L 83 13 L 83.476 12.847 C 83.496 12.909 83.49 12.946 83.491 12.922 C 83.492 12.908 83.495 12.878 83.504 12.828 C 83.523 12.73 83.559 12.588 83.619 12.404 C 83.737 12.038 83.937 11.539 84.226 10.95 C 84.803 9.773 85.726 8.259 87.044 6.751 C 89.676 3.738 93.865 0.761 100.021 0.5 L 100 0 Z M 83 13 L 82.501 12.975 C 82.245 18.097 83.751 22.108 86.453 25.154 C 89.145 28.187 92.991 30.226 97.362 31.481 L 97.5 31 L 97.638 30.519 C 93.382 29.298 89.728 27.337 87.201 24.49 C 84.685 21.654 83.255 17.903 83.499 13.025 L 83 13 Z M 97.5 31 L 97.412 31.492 L 119.913 35.492 L 120 35 L 120.088 34.508 L 97.588 30.508 L 97.5 31 Z M 120 35 L 119.762 35.44 C 123.499 37.465 125.805 39.11 126.885 41.004 C 127.932 42.842 127.876 45.025 126.537 48.311 L 127 48.5 L 127.463 48.689 C 128.85 45.283 129.023 42.737 127.754 40.509 C 126.516 38.337 123.96 36.578 120.238 34.56 L 120 35 Z M 122 6 L 121.975 6.499 C 123.627 6.581 124.516 7.095 125.016 7.754 C 125.533 8.437 125.712 9.373 125.729 10.454 C 125.746 11.558 125.602 12.634 125.555 13.696 C 125.533 14.204 125.534 14.701 125.606 15.142 C 125.677 15.58 125.825 16.014 126.137 16.344 L 126.5 16 L 126.863 15.656 C 126.745 15.531 126.648 15.322 126.593 14.982 C 126.538 14.644 126.532 14.228 126.554 13.74 C 126.595 12.811 126.747 11.565 126.729 10.439 C 126.711 9.291 126.526 8.09 125.812 7.15 C 125.082 6.186 123.873 5.591 122.025 5.501 L 122 6 Z M 92.5 13.5 L 92.974 13.658 C 93.405 12.365 94.771 10.719 96.965 9.247 C 99.142 7.787 102.083 6.534 105.576 5.994 L 105.5 5.5 L 105.424 5.006 C 101.786 5.568 98.707 6.874 96.408 8.417 C 94.125 9.948 92.556 11.751 92.026 13.342 L 92.5 13.5 Z M 105.5 5.5 L 105.576 5.994 C 108.336 5.567 111.643 5.651 114.669 5.865 C 116.179 5.972 117.61 6.111 118.862 6.233 C 120.108 6.354 121.188 6.461 121.975 6.499 L 122 6 L 122.025 5.501 C 121.267 5.463 120.216 5.36 118.959 5.238 C 117.708 5.116 116.264 4.975 114.74 4.867 C 111.698 4.652 108.299 4.561 105.424 5.006 L 105.5 5.5 Z M 155.5 29.5 L 156 29.5 L 156 6 L 155.5 6 L 155 6 L 155 29.5 L 155.5 29.5 Z M 155.5 6 L 155.511 6.5 L 177.511 6 L 177.5 5.5 L 177.489 5 L 155.489 5.5 L 155.5 6 Z M 178 29.5 L 178 29 L 155.5 29 L 155.5 29.5 L 155.5 30 L 178 30 L 178 29.5 Z M 177.5 5.5 L 177.472 5.999 C 181.98 6.25 185.738 6.75 188.371 8.305 C 189.672 9.074 190.695 10.1 191.397 11.491 C 192.103 12.888 192.5 14.68 192.5 17 L 193 17 L 193.5 17 C 193.5 14.57 193.084 12.612 192.29 11.04 C 191.493 9.462 190.328 8.301 188.879 7.445 C 186.012 5.75 182.02 5.25 177.528 5.001 L 177.5 5.5 Z M 193 17 L 192.5 17 C 192.5 21.707 191.629 24.248 189.511 25.851 C 188.429 26.67 186.985 27.274 185.071 27.766 C 183.157 28.258 180.808 28.63 177.935 29.004 L 178 29.5 L 178.065 29.996 C 180.942 29.62 183.343 29.242 185.32 28.734 C 187.296 28.226 188.883 27.58 190.114 26.649 C 192.621 24.752 193.5 21.793 193.5 17 L 193 17 Z M 193.5 60 L 193.5 60.5 L 202 60.5 L 202 60 L 202 59.5 L 193.5 59.5 L 193.5 60 Z M 202 60 L 202.457 60.203 L 210.457 42.203 L 210 42 L 209.543 41.797 L 201.543 59.797 L 202 60 Z M 210 42 L 210 42.5 L 237.5 42.5 L 237.5 42 L 237.5 41.5 L 210 41.5 L 210 42 Z M 237.5 42 L 237.034 42.181 L 244.034 60.181 L 244.5 60 L 244.966 59.819 L 237.966 41.819 L 237.5 42 Z M 244.5 60 L 244.5 60.5 L 257.5 60.5 L 257.5 60 L 257.5 59.5 L 244.5 59.5 L 244.5 60 Z M 257.5 60 L 257.957 59.797 L 231.957 1.297 L 231.5 1.5 L 231.043 1.703 L 257.043 60.203 L 257.5 60 Z M 231.5 1.5 L 231.5 1 L 217 1 L 217 1.5 L 217 2 L 231.5 2 L 231.5 1.5 Z M 217 1.5 L 216.536 1.314 L 193.036 59.814 L 193.5 60 L 193.964 60.186 L 217.464 1.686 L 217 1.5 Z M 211.5 36.5 L 211.5 37 L 236.5 37 L 236.5 36.5 L 236.5 36 L 211.5 36 L 211.5 36.5 Z M 236.5 36.5 L 236.958 36.299 L 224.458 7.799 L 224 8 L 223.542 8.201 L 236.042 36.701 L 236.5 36.5 Z M 224 8 L 223.542 7.799 L 211.042 36.299 L 211.5 36.5 L 211.958 36.701 L 224.458 8.201 L 224 8 Z M 65.5 59.5 L 65.5 60 L 77.5 60 L 77.5 59.5 L 77.5 59 L 65.5 59 L 65.5 59.5 Z M 77.5 59.5 L 78 59.492 L 77 0.492 L 76.5 0.5 L 76 0.508 L 77 59.508 L 77.5 59.5 Z M 76.5 0.5 L 76.5 0 L 65.5 0 L 65.5 0.5 L 65.5 1 L 76.5 1 L 76.5 0.5 Z M 65.5 0.5 L 65 0.5 L 65 59.5 L 65.5 59.5 L 66 59.5 L 66 0.5 L 65.5 0.5 Z M 58.5 0 L 58.5 -0.5 L 48 -0.5 L 48 0 L 48 0.5 L 58.5 0.5 L 58.5 0 Z M 48 0 L 47.5 0 L 47.5 26.5 L 48 26.5 L 48.5 26.5 L 48.5 0 L 48 0 Z M 48 26.5 L 48 26 L 10 26 L 10 26.5 L 10 27 L 48 27 L 48 26.5 Z M 10 26.5 L 10.5 26.51 L 11 1.01 L 10.5 1 L 10 0.99 L 9.5 26.49 L 10 26.5 Z M 10.5 1 L 10.5 0.5 L 0 0.5 L 0 1 L 0 1.5 L 10.5 1.5 L 10.5 1 Z M 0 1 L -0.5 1 L -0.5 59.5 L 0 59.5 L 0.5 59.5 L 0.5 1 L 0 1 Z M 0 59.5 L -0.023 59.999 L 10.977 60.499 L 11 60 L 11.023 59.501 L 0.023 59.001 L 0 59.5 Z M 11 60 L 11.5 59.991 L 11 30.991 L 10.5 31 L 10 31.009 L 10.5 60.009 L 11 60 Z M 10.5 31 L 10.487 31.5 L 47.987 32.5 L 48 32 L 48.013 31.5 L 10.513 30.5 L 10.5 31 Z M 48 32 L 47.5 32 L 47.5 60 L 48 60 L 48.5 60 L 48.5 32 L 48 32 Z M 48 60 L 48.025 60.499 L 58.025 59.999 L 58 59.5 L 57.975 59.001 L 47.975 59.501 L 48 60 Z M 58 59.5 L 58.5 59.504 L 59 0.004 L 58.5 0 L 58 -0.004 L 57.5 59.496 L 58 59.5 Z M 127 48.5 L 126.68 48.116 C 120.039 53.655 111.525 54.3 104.45 53.461 C 97.382 52.624 91.843 50.317 91.252 50.064 L 91.055 50.524 L 90.859 50.984 C 91.49 51.253 97.129 53.601 104.332 54.454 C 111.526 55.307 120.374 54.679 127.32 48.884 L 127 48.5 Z M 91.055 50.524 L 90.588 50.346 C 90.583 50.361 90.588 50.341 90.608 50.31 C 90.616 50.298 90.647 50.248 90.706 50.199 C 90.763 50.153 90.938 50.038 91.17 50.114 C 91.371 50.179 91.448 50.339 91.464 50.375 C 91.487 50.427 91.495 50.47 91.497 50.481 C 91.501 50.508 91.5 50.52 91.5 50.5 L 91 50.5 L 90.5 50.5 C 90.5 50.537 90.501 50.592 90.511 50.648 C 90.515 50.674 90.526 50.728 90.553 50.789 C 90.573 50.832 90.654 50.997 90.859 51.064 C 91.096 51.142 91.277 51.024 91.339 50.973 C 91.404 50.92 91.442 50.863 91.456 50.839 C 91.49 50.786 91.511 50.733 91.523 50.702 L 91.055 50.524 Z M 91 50.5 C 90.799 50.958 90.799 50.958 90.799 50.958 C 90.799 50.958 90.799 50.958 90.799 50.958 C 90.799 50.958 90.799 50.958 90.799 50.958 C 90.799 50.958 90.799 50.958 90.799 50.958 C 90.799 50.958 90.799 50.958 90.799 50.958 C 90.799 50.958 90.799 50.958 90.799 50.958 C 90.799 50.958 90.8 50.958 90.8 50.958 C 90.801 50.959 90.802 50.959 90.803 50.96 C 90.806 50.961 90.81 50.963 90.815 50.965 C 90.825 50.969 90.84 50.975 90.859 50.984 L 91.055 50.524 L 91.252 50.064 C 91.234 50.057 91.221 50.051 91.213 50.047 C 91.209 50.046 91.206 50.044 91.204 50.043 C 91.203 50.043 91.202 50.043 91.202 50.042 C 91.201 50.042 91.201 50.042 91.201 50.042 C 91.201 50.042 91.201 50.042 91.201 50.042 C 91.201 50.042 91.201 50.042 91.201 50.042 C 91.201 50.042 91.201 50.042 91.201 50.042 C 91.201 50.042 91.201 50.042 91.201 50.042 C 91.201 50.042 91.201 50.042 91.201 50.042 C 91.201 50.042 91.201 50.042 91 50.5 Z M 91.055 50.524 L 91.523 50.702 C 91.611 50.47 91.736 49.896 91.854 49.183 C 91.975 48.45 92.095 47.519 92.162 46.545 C 92.228 45.572 92.242 44.543 92.145 43.618 C 92.049 42.709 91.84 41.83 91.41 41.214 L 91 41.5 L 90.59 41.786 C 90.872 42.189 91.06 42.859 91.15 43.722 C 91.239 44.57 91.228 45.536 91.164 46.477 C 91.1 47.415 90.984 48.314 90.867 49.021 C 90.747 49.748 90.635 50.224 90.588 50.346 L 91.055 50.524 Z" fill="currentColor" fill-rule="nonzero"></path>
</svg>