<svg xmlns="http://www.w3.org/2000/svg" width="183" height="218.907" viewBox="0 0 183 218.907" fill="none">
  <g transform="translate(0,4.454)"><path d="M 1.991 66.432 C -3.146 70.857 2.93 77.042 5.961 76.563 L 63.192 73.949 C 67.162 74.929 69.477 77.871 70.47 82.773 L 71.131 102.709 L 54.921 205.003 C 54.554 215.019 60.466 217.579 67.492 210.232 C 74.519 202.885 93.296 131.469 93.296 131.469 C 94.63 129.314 95.363 128.863 96.604 131.469 L 119.453 204.022 C 125.578 216.7 133.025 215.119 133.347 208.271 C 133.669 201.422 119.43 102.709 119.43 102.709 C 117.094 88.392 116.828 80.393 118.107 66.105 C 119.61 58.184 121.834 54.519 127.37 49.111 L 182.285 9.566 C 185.385 1.476 177.654 -1.546 173.353 0.742 L 88.334 36.692 L 1.991 66.432 Z" fill="#298CB5" fill-rule="nonzero"></path></g>
  <g transform="translate(75.23,0)"><path d="M 26.133 17.299 C 26.133 26.685 16.261 35.274 9.045 35.274 C 2.343 33.64 0.145 26.221 0.001 16.998 C 0.001 17.116 -0.001 16.881 0.001 16.998 C 0.525 7.418 9.37 -0.183 16.084 0.003 C 23.3 0.003 26.133 7.914 26.133 17.299 Z" fill="#298CB5" fill-rule="nonzero"></path></g>
</svg>