<svg xmlns="http://www.w3.org/2000/svg" width="257.5" height="60.028" viewBox="0 0 257.5 60.028" fill="none">
  <path d="M 91 41.5 L 86 41.5 L 85 54.5 C 93.34 58.945 95.004 58.312 97.5 59.5 C 99.996 60.688 118 59.5 118 59.5 C 127.951 56.877 139.5 50 138 40.5 C 136.5 31 127.825 25.057 104.5 24.5 C 104.5 24.5 90.5 19.5 92.5 13.5 C 93.461 10.616 98.369 6.603 105.5 5.5 C 111.135 4.629 118.91 5.848 122 6 C 129 6.344 124.778 14.18 126.5 16 L 131.5 16 L 133 4 L 125.5 0 L 100 0 C 87.352 0.536 82.761 12.255 83 13 C 82.5 23 88.873 28.524 97.5 31 L 120 35 C 127.458 39.043 129.726 41.808 127 48.5 C 113.413 59.834 92.277 51.046 91.055 50.524 C 91.021 50.615 91 50.614 91 50.5 C 91 50.5 91.019 50.508 91.055 50.524 C 91.324 49.816 92.424 43.538 91 41.5 Z" fill="#E67610" fill-rule="nonzero"></path>
  <path d="M 143.5 59.5 L 155.5 59.5 L 155.5 36 C 185.24 37.291 196.661 34.62 201 19.5 C 198.439 0.18 183.083 0.062 155.5 0 L 143.5 1 L 143.5 59.5 Z M 155.5 6 L 155.5 29.5 L 178 29.5 C 189.5 28 193 26.5 193 17 C 193 7.5 186.5 6 177.5 5.5 L 155.5 6 Z" fill="#E67610" fill-rule="evenodd"></path>
  <path d="M 58.5 0 L 48 0 L 48 26.5 L 10 26.5 L 10.5 1 L 0 1 L 0 59.5 L 11 60 L 10.5 31 L 48 32 L 48 60 L 58 59.5 L 58.5 0 Z" fill="#E67610" fill-rule="nonzero"></path>
  <path d="M 65.5 59.5 L 77.5 59.5 L 76.5 0.5 L 65.5 0.5 L 65.5 59.5 Z" fill="#E67610" fill-rule="nonzero"></path>
  <path d="M 193.5 60 L 202 60 L 210 42 L 237.5 42 L 244.5 60 L 257.5 60 L 231.5 1.5 L 217 1.5 L 193.5 60 Z M 236.5 36.5 L 211.5 36.5 L 224 8 L 236.5 36.5 Z" fill="#E67610" fill-rule="evenodd"></path>
</svg>