<svg xmlns="http://www.w3.org/2000/svg" width="322.5" height="229.904" viewBox="0 0 322.5 229.904" fill="none">
<g transform="translate(0,0)"><path d="M 1 86.877 L 42.5 86.877 C 41.333 78.736 43.048 64.129 52.139 53.877 L 58 3.464 C 42.596 8.479 31.842 14.789 18 29.877 C 2.982 48.397 1.392 61.829 1 86.877 Z" fill="#74D42A" fill-rule="nonzero" stroke="#141414" stroke-width="1.4" stroke-linejoin="round"></path><path d="M 52.139 53.877 C 58.055 47.205 67.096 42.377 80.5 42.377 C 84.574 42.377 88.227 42.822 91.5 43.605 L 74.5 0 C 66.279 0.735 64.225 1.478 58 3.464 L 52.139 53.877 Z" fill="#74D42A" fill-rule="nonzero" stroke="#141414" stroke-width="1.4" stroke-linejoin="round"></path><path d="M 74.5 0 L 91.5 43.605 C 103.026 46.364 109.838 53.324 113.689 59.877 L 134.5 19.498 C 113.222 3.923 99.916 0.28 74.5 0 Z" fill="#74D42A" fill-rule="nonzero" stroke="#141414" stroke-width="1.4" stroke-linejoin="round"></path><path d="M 118.033 73.854 C 119.735 72.958 156.5 54.877 156.5 54.877 C 150.155 39.272 145.677 29.231 134.5 19.498 L 113.689 59.877 C 117.784 66.847 118.53 73.355 118.033 73.854 Z" fill="#74D42A" fill-rule="nonzero" stroke="#141414" stroke-width="1.4" stroke-linejoin="round"></path><path d="M 168 95.877 L 156.5 54.877 C 156.5 54.877 119.735 72.958 118.033 73.854 C 118.023 73.864 118.012 73.872 118 73.877 C 118.56 78.635 118.005 83.08 116.356 87.377 L 152 111.877 C 156.748 104.128 160.292 100.666 168 95.877 Z" fill="#74D42A" fill-rule="nonzero" stroke="#141414" stroke-width="1.4" stroke-linejoin="round"></path><path d="M 152 111.877 L 116.356 87.377 C 114.162 93.097 110.027 98.554 104 104.141 L 104 156.877 C 104 156.877 106.402 168.765 110 176.377 L 145.5 152.377 C 143.896 144.427 143.413 139.947 144 131.877 C 146.169 123.398 147.657 118.93 152 111.877 Z" fill="#74D42A" fill-rule="nonzero" stroke="#141414" stroke-width="1.4" stroke-linejoin="round"></path><path d="M 34 148.877 C 15.925 161.186 9.234 170.205 1.5 188.877 L 0 228.877 C 0 228.877 179 227.877 205.5 227.877 C 212.064 227.877 220.414 225.701 229.5 221.377 C 238.756 216.972 245.704 211.414 246.991 210.384 L 247 210.377 C 249.5 208.377 266.011 192.14 273.508 176.877 L 226.534 173.423 C 219.476 180.852 206.5 187.877 188 187.266 C 173 186.771 157.385 176.703 145.5 152.377 L 110 176.377 L 116.5 186.877 L 54.5 186.877 C 64.243 178.25 71.192 174.426 83.932 167.415 L 84 167.377 L 43.5 143.467 C 40.425 145.221 37.258 147.023 34 148.877 Z" fill="#74D42A" fill-rule="nonzero" stroke="#141414" stroke-width="1.4" stroke-linejoin="round"></path><path d="M 104 156.877 L 104 104.141 C 91.65 115.588 71.352 127.577 43.5 143.467 L 84 167.377 L 104 156.877 Z" fill="#74D42A" fill-rule="nonzero" stroke="#141414" stroke-width="1.4" stroke-linejoin="round"></path><path d="M 273.508 176.877 C 277.207 168.609 279.778 159.653 282 148.877 C 283.104 143.521 283.096 138.168 283 132.877 L 236 160.377 C 232.93 165.933 230.942 168.852 226.534 173.423 L 273.508 176.877 Z" fill="#74D42A" fill-rule="nonzero" stroke="#141414" stroke-width="1.4" stroke-linejoin="round"></path><path d="M 236 116.877 C 242.552 134.999 241.977 144.424 236 160.377 L 283 132.877 C 282.901 127.458 282.239 123.103 281 117.877 L 235.762 116.531 L 236 116.877 Z" fill="#74D42A" fill-rule="nonzero" stroke="#141414" stroke-width="1.4" stroke-linejoin="round"></path><path d="M 230.5 108.877 C 233.222 112.366 234.337 114.014 235.762 116.531 L 281 117.877 C 277.374 102.581 269.569 87.383 258.2 75.877 L 230.5 108.877 Z" fill="#74D42A" fill-rule="nonzero" stroke="#141414" stroke-width="1.4" stroke-linejoin="round"></path><path d="M 222 98.877 C 225.254 102.38 227.084 104.375 230.5 108.877 L 258.2 75.877 C 247.007 64.549 232.794 55.83 217 51.239 L 222 98.877 Z" fill="#74D42A" fill-rule="nonzero" stroke="#141414" stroke-width="1.4" stroke-linejoin="round"></path><path d="M 190.5 90.377 L 190.85 90.416 C 203.658 91.854 210.524 92.624 222 98.877 L 217 51.239 C 212.136 49.825 207.122 48.803 202 48.216 L 190.5 90.377 Z" fill="#74D42A" fill-rule="nonzero" stroke="#141414" stroke-width="1.4" stroke-linejoin="round"></path><path d="M 156.5 54.877 L 168 95.877 C 176.392 91.954 181.343 91.995 190.5 90.377 L 202 48.216 C 187.385 46.543 171.892 48.42 156.5 54.877 Z" fill="#74D42A" fill-rule="nonzero" stroke="#141414" stroke-width="1.4" stroke-linejoin="round"></path></g>
<g transform="translate(21.141,21.376)"><path d="M 6.359 161.501 L 4.601 159.723 L 4.421 159.902 L 4.28 160.113 L 6.359 161.501 Z M 1.359 187.001 L -1.056 187.647 L -0.56 189.501 L 1.359 189.501 L 1.359 187.001 Z M 176.859 187.001 L 176.892 189.501 L 177.152 189.497 L 177.405 189.441 L 176.859 187.001 Z M 174.859 48.001 L 175.392 45.558 L 175.119 45.499 L 174.84 45.501 L 174.859 48.001 Z M 79.859 3.001 L 79.068 5.373 L 79.859 3.001 Z M 116.859 71.501 L 114.669 70.294 L 101.169 94.794 L 103.359 96.001 L 105.549 97.207 L 119.049 72.707 L 116.859 71.501 Z M 6.359 161.501 L 4.28 160.113 C 1.114 164.857 -1.064 168.889 -1.992 173.238 C -2.931 177.636 -2.54 182.102 -1.056 187.647 L 1.359 187.001 L 3.774 186.355 C 2.408 181.25 2.182 177.636 2.898 174.282 C 3.624 170.879 5.37 167.486 8.439 162.889 L 6.359 161.501 Z M 1.359 187.001 L 1.359 189.501 L 176.859 189.501 L 176.859 187.001 L 176.859 184.501 L 1.359 184.501 L 1.359 187.001 Z M 176.859 187.001 L 177.405 189.441 C 197.474 184.95 212.384 178.561 222.963 168.065 C 233.578 157.533 239.537 143.164 242.334 123.35 L 239.859 123.001 L 237.384 122.651 C 234.675 141.837 229.01 155.022 219.441 164.516 C 209.835 174.047 195.997 180.157 176.313 184.561 L 176.859 187.001 Z M 239.859 123.001 L 242.334 123.35 C 245.185 103.156 239.78 86.064 227.842 72.816 C 215.966 59.637 197.801 50.448 175.392 45.558 L 174.859 48.001 L 174.326 50.443 C 196.079 55.189 213.166 64 224.127 76.163 C 235.025 88.256 240.039 103.846 237.384 122.651 L 239.859 123.001 Z M 174.859 48.001 L 174.84 45.501 C 162.829 45.591 153.293 46.515 144.012 50.049 C 134.728 53.583 125.91 59.647 115.155 69.672 L 116.859 71.501 L 118.564 73.33 C 129.074 63.533 137.346 57.937 145.791 54.722 C 154.238 51.505 163.068 50.59 174.878 50.501 L 174.859 48.001 Z M 0.359 65.501 L 2.852 65.307 C 0.923 40.48 11.606 22.8 26.869 12.645 C 42.238 2.419 62.312 -0.213 79.068 5.373 L 79.859 3.001 L 80.65 0.629 C 62.406 -5.452 40.73 -2.584 24.099 8.482 C 7.362 19.618 -4.205 39.021 -2.133 65.694 L 0.359 65.501 Z M 79.859 3.001 L 79.068 5.373 C 106.486 14.512 120.819 40.911 114.414 70.98 L 116.859 71.501 L 119.304 72.022 C 126.193 39.683 110.689 10.642 80.65 0.629 L 79.859 3.001 Z M 103.359 96.001 C 101.762 94.077 101.763 94.077 101.763 94.077 C 101.763 94.077 101.763 94.077 101.762 94.077 C 101.762 94.078 101.761 94.078 101.76 94.079 C 101.758 94.081 101.754 94.084 101.749 94.088 C 101.739 94.096 101.724 94.109 101.703 94.126 C 101.661 94.161 101.597 94.213 101.513 94.282 C 101.343 94.421 101.088 94.628 100.754 94.896 C 100.085 95.434 99.097 96.219 97.829 97.2 C 95.292 99.164 91.635 101.915 87.172 105.051 C 78.233 111.331 66.109 119.121 53.282 125.245 L 54.359 127.501 L 55.436 129.757 C 68.609 123.468 80.985 115.508 90.046 109.142 C 94.583 105.954 98.301 103.157 100.889 101.154 C 102.183 100.153 103.195 99.349 103.886 98.794 C 104.231 98.517 104.496 98.301 104.676 98.154 C 104.766 98.081 104.835 98.024 104.882 97.986 C 104.905 97.966 104.923 97.952 104.935 97.941 C 104.941 97.936 104.946 97.932 104.95 97.93 C 104.951 97.928 104.953 97.927 104.954 97.926 C 104.954 97.926 104.955 97.925 104.955 97.925 C 104.955 97.925 104.956 97.925 103.359 96.001 Z M 54.359 127.501 L 53.282 125.245 C 26.913 137.833 12.117 152.292 4.601 159.723 L 6.359 161.501 L 8.117 163.279 C 15.476 156.002 29.805 141.993 55.436 129.757 L 54.359 127.501 Z M 103.359 96.001 L 100.86 95.916 C 100.372 110.35 99.352 121.693 100.478 131.647 C 101.631 141.844 105.024 150.725 113.234 160.599 L 115.156 159.001 L 117.078 157.403 C 109.491 148.277 106.49 140.311 105.446 131.085 C 104.375 121.616 105.354 110.959 105.858 96.085 L 103.359 96.001 Z M 115.156 159.001 L 113.234 160.599 C 121.081 170.037 127.426 177.563 136.69 182.518 C 145.995 187.495 157.966 189.753 176.892 189.501 L 176.859 187.001 L 176.826 184.501 C 158.252 184.749 147.27 182.507 139.048 178.109 C 130.785 173.689 125.028 166.964 117.078 157.403 L 115.156 159.001 Z" fill="currentColor" fill-rule="nonzero"></path></g>
<g transform="translate(277.5,186.877)"><path d="M 19.5 0 L 19.5 22.25 L 26 22.25 C 26.3 18.352 26.843 16.409 32 15.669 C 32 15.669 37 16 37 22 L 37 42 L 45 42 L 45 18.5 C 41.567 12.549 40.232 11.349 33.5 9.5 L 26 9.5 L 26 0 L 19.5 0 Z" fill="#388DCA" fill-rule="nonzero" stroke="#141414" stroke-width="1" stroke-linejoin="round"></path><path d="M 7 0 L 0 0 L 0 30.5 L 7 30.5 L 7 22 L 7 14 L 7 0 Z" fill="#388DCA" fill-rule="nonzero" stroke="#141414" stroke-width="1" stroke-linejoin="round"></path><path d="M 12.5 14 L 7 14 L 7 22 L 12.5 22 L 12.5 14 Z" fill="#388DCA" fill-rule="nonzero" stroke="#141414" stroke-width="1" stroke-linejoin="round"></path><path d="M 7 30.5 L 0 30.5 C 1.003 36.953 7 43.5 13.5 43 C 20 42.5 25.526 36.847 25.5 28.5 L 20 28.5 C 14.865 37.795 12.025 37.338 7 30.5 Z" fill="#388DCA" fill-rule="nonzero" stroke="#141414" stroke-width="1" stroke-linejoin="round"></path></g>
</svg>