<svg xmlns="http://www.w3.org/2000/svg" width="49.5" height="38" viewBox="0 0 49.5 38" fill="none"><path d="M 14.5 14.5 C 14.398 13.155 19 0 20.5 0 C 22 0 25.294 7.674 27.5 11 C 34.759 8.91 38.457 7.285 43.5 2.5 C 43.587 8.393 41.854 11.487 34.5 16.5 L 34.5 20 C 41.147 24.667 44.248 24.976 49.5 24.5 C 47.315 26.869 43.503 28.326 37.5 29.5 C 32.261 30.861 25 29.5 25 29.5 C 25 29.5 18.125 37.609 18.5 38 C 16.095 37.187 15.673 35.714 15 33 L 14.5 24 C 7.19 23.166 4.15 21.351 0 16.5 C 5.169 16.003 14.602 15.845 14.5 14.5 Z" fill="#E67610" fill-rule="nonzero"></path></svg>