<svg xmlns="http://www.w3.org/2000/svg" width="1920" height="560" viewBox="0 0 1920 560" fill="none">
<defs><linearGradient id="wv" x1="0" y1="0" x2="1" y2="0">
<stop offset="0" stop-color="#E4670F"></stop><stop offset="0.24" stop-color="#F0A81C"></stop><stop offset="0.5" stop-color="#71BD30"></stop><stop offset="0.72" stop-color="#1E9E8A"></stop><stop offset="1" stop-color="#2C8DBE"></stop></linearGradient><filter id="glow" x="-10%" y="-40%" width="120%" height="180%"><feGaussianBlur stdDeviation="20"></feGaussianBlur></filter></defs>
<path d="M0.0,223.0 L17.5,229.0 L34.9,235.0 L52.4,240.9 L69.8,246.6 L87.3,252.1 L104.7,257.4 L122.2,262.4 L139.6,267.1 L157.1,271.4 L174.5,275.3 L192.0,278.7 L209.5,281.7 L226.9,284.2 L244.4,286.2 L261.8,287.7 L279.3,288.6 L296.7,289.0 L314.2,288.8 L331.6,288.1 L349.1,286.8 L366.5,285.0 L384.0,282.7 L401.5,279.9 L418.9,276.6 L436.4,272.9 L453.8,268.7 L471.3,264.2 L488.7,259.3 L506.2,254.1 L523.6,248.7 L541.1,243.0 L558.5,237.2 L576.0,231.3 L593.5,225.3 L610.9,219.2 L628.4,213.2 L645.8,207.3 L663.3,201.5 L680.7,195.9 L698.2,190.5 L715.6,185.4 L733.1,180.6 L750.5,176.2 L768.0,172.1 L785.5,168.5 L802.9,165.3 L820.4,162.7 L837.8,160.5 L855.3,158.8 L872.7,157.7 L890.2,157.1 L907.6,157.1 L925.1,157.6 L942.5,158.6 L960.0,160.2 L977.5,162.4 L994.9,165.0 L1012.4,168.1 L1029.8,171.7 L1047.3,175.7 L1064.7,180.1 L1082.2,184.8 L1099.6,189.9 L1117.1,195.2 L1134.5,200.8 L1152.0,206.6 L1169.5,212.5 L1186.9,218.5 L1204.4,224.5 L1221.8,230.5 L1239.3,236.5 L1256.7,242.3 L1274.2,248.0 L1291.6,253.5 L1309.1,258.7 L1326.5,263.6 L1344.0,268.2 L1361.5,272.4 L1378.9,276.2 L1396.4,279.5 L1413.8,282.4 L1431.3,284.8 L1448.7,286.6 L1466.2,288.0 L1483.6,288.8 L1501.1,289.0 L1518.5,288.7 L1536.0,287.8 L1553.5,286.4 L1570.9,284.5 L1588.4,282.1 L1605.8,279.1 L1623.3,275.7 L1640.7,271.9 L1658.2,267.6 L1675.6,263.0 L1693.1,258.0 L1710.5,252.8 L1728.0,247.3 L1745.5,241.6 L1762.9,235.7 L1780.4,229.8 L1797.8,223.8 L1815.3,217.7 L1832.7,211.7 L1850.2,205.9 L1867.6,200.1 L1885.1,194.6 L1902.5,189.2 L1920.0,184.2 L1920.0,334.2 L1902.5,339.2 L1885.1,344.6 L1867.6,350.1 L1850.2,355.9 L1832.7,361.7 L1815.3,367.7 L1797.8,373.8 L1780.4,379.8 L1762.9,385.7 L1745.5,391.6 L1728.0,397.3 L1710.5,402.8 L1693.1,408.0 L1675.6,413.0 L1658.2,417.6 L1640.7,421.9 L1623.3,425.7 L1605.8,429.1 L1588.4,432.1 L1570.9,434.5 L1553.5,436.4 L1536.0,437.8 L1518.5,438.7 L1501.1,439.0 L1483.6,438.8 L1466.2,438.0 L1448.7,436.6 L1431.3,434.8 L1413.8,432.4 L1396.4,429.5 L1378.9,426.2 L1361.5,422.4 L1344.0,418.2 L1326.5,413.6 L1309.1,408.7 L1291.6,403.5 L1274.2,398.0 L1256.7,392.3 L1239.3,386.5 L1221.8,380.5 L1204.4,374.5 L1186.9,368.5 L1169.5,362.5 L1152.0,356.6 L1134.5,350.8 L1117.1,345.2 L1099.6,339.9 L1082.2,334.8 L1064.7,330.1 L1047.3,325.7 L1029.8,321.7 L1012.4,318.1 L994.9,315.0 L977.5,312.4 L960.0,310.2 L942.5,308.6 L925.1,307.6 L907.6,307.1 L890.2,307.1 L872.7,307.7 L855.3,308.8 L837.8,310.5 L820.4,312.7 L802.9,315.3 L785.5,318.5 L768.0,322.1 L750.5,326.2 L733.1,330.6 L715.6,335.4 L698.2,340.5 L680.7,345.9 L663.3,351.5 L645.8,357.3 L628.4,363.2 L610.9,369.2 L593.5,375.3 L576.0,381.3 L558.5,387.2 L541.1,393.0 L523.6,398.7 L506.2,404.1 L488.7,409.3 L471.3,414.2 L453.8,418.7 L436.4,422.9 L418.9,426.6 L401.5,429.9 L384.0,432.7 L366.5,435.0 L349.1,436.8 L331.6,438.1 L314.2,438.8 L296.7,439.0 L279.3,438.6 L261.8,437.7 L244.4,436.2 L226.9,434.2 L209.5,431.7 L192.0,428.7 L174.5,425.3 L157.1,421.4 L139.6,417.1 L122.2,412.4 L104.7,407.4 L87.3,402.1 L69.8,396.6 L52.4,390.9 L34.9,385.0 L17.5,379.0 L0.0,373.0 Z" fill="url(#wv)" opacity="0.30" filter="url(#glow)"></path>
<path d="M0.0,224.0 L17.5,230.0 L34.9,236.0 L52.4,241.9 L69.8,247.6 L87.3,253.1 L104.7,258.4 L122.2,263.4 L139.6,268.1 L157.1,272.4 L174.5,276.3 L192.0,279.7 L209.5,282.7 L226.9,285.2 L244.4,287.2 L261.8,288.7 L279.3,289.6 L296.7,290.0 L314.2,289.8 L331.6,289.1 L349.1,287.8 L366.5,286.0 L384.0,283.7 L401.5,280.9 L418.9,277.6 L436.4,273.9 L453.8,269.7 L471.3,265.2 L488.7,260.3 L506.2,255.1 L523.6,249.7 L541.1,244.0 L558.5,238.2 L576.0,232.3 L593.5,226.3 L610.9,220.2 L628.4,214.2 L645.8,208.3 L663.3,202.5 L680.7,196.9 L698.2,191.5 L715.6,186.4 L733.1,181.6 L750.5,177.2 L768.0,173.1 L785.5,169.5 L802.9,166.3 L820.4,163.7 L837.8,161.5 L855.3,159.8 L872.7,158.7 L890.2,158.1 L907.6,158.1 L925.1,158.6 L942.5,159.6 L960.0,161.2 L977.5,163.4 L994.9,166.0 L1012.4,169.1 L1029.8,172.7 L1047.3,176.7 L1064.7,181.1 L1082.2,185.8 L1099.6,190.9 L1117.1,196.2 L1134.5,201.8 L1152.0,207.6 L1169.5,213.5 L1186.9,219.5 L1204.4,225.5 L1221.8,231.5 L1239.3,237.5 L1256.7,243.3 L1274.2,249.0 L1291.6,254.5 L1309.1,259.7 L1326.5,264.6 L1344.0,269.2 L1361.5,273.4 L1378.9,277.2 L1396.4,280.5 L1413.8,283.4 L1431.3,285.8 L1448.7,287.6 L1466.2,289.0 L1483.6,289.8 L1501.1,290.0 L1518.5,289.7 L1536.0,288.8 L1553.5,287.4 L1570.9,285.5 L1588.4,283.1 L1605.8,280.1 L1623.3,276.7 L1640.7,272.9 L1658.2,268.6 L1675.6,264.0 L1693.1,259.0 L1710.5,253.8 L1728.0,248.3 L1745.5,242.6 L1762.9,236.7 L1780.4,230.8 L1797.8,224.8 L1815.3,218.7 L1832.7,212.7 L1850.2,206.9 L1867.6,201.1 L1885.1,195.6 L1902.5,190.2 L1920.0,185.2 L1920.0,333.2 L1902.5,338.2 L1885.1,343.6 L1867.6,349.1 L1850.2,354.9 L1832.7,360.7 L1815.3,366.7 L1797.8,372.8 L1780.4,378.8 L1762.9,384.7 L1745.5,390.6 L1728.0,396.3 L1710.5,401.8 L1693.1,407.0 L1675.6,412.0 L1658.2,416.6 L1640.7,420.9 L1623.3,424.7 L1605.8,428.1 L1588.4,431.1 L1570.9,433.5 L1553.5,435.4 L1536.0,436.8 L1518.5,437.7 L1501.1,438.0 L1483.6,437.8 L1466.2,437.0 L1448.7,435.6 L1431.3,433.8 L1413.8,431.4 L1396.4,428.5 L1378.9,425.2 L1361.5,421.4 L1344.0,417.2 L1326.5,412.6 L1309.1,407.7 L1291.6,402.5 L1274.2,397.0 L1256.7,391.3 L1239.3,385.5 L1221.8,379.5 L1204.4,373.5 L1186.9,367.5 L1169.5,361.5 L1152.0,355.6 L1134.5,349.8 L1117.1,344.2 L1099.6,338.9 L1082.2,333.8 L1064.7,329.1 L1047.3,324.7 L1029.8,320.7 L1012.4,317.1 L994.9,314.0 L977.5,311.4 L960.0,309.2 L942.5,307.6 L925.1,306.6 L907.6,306.1 L890.2,306.1 L872.7,306.7 L855.3,307.8 L837.8,309.5 L820.4,311.7 L802.9,314.3 L785.5,317.5 L768.0,321.1 L750.5,325.2 L733.1,329.6 L715.6,334.4 L698.2,339.5 L680.7,344.9 L663.3,350.5 L645.8,356.3 L628.4,362.2 L610.9,368.2 L593.5,374.3 L576.0,380.3 L558.5,386.2 L541.1,392.0 L523.6,397.7 L506.2,403.1 L488.7,408.3 L471.3,413.2 L453.8,417.7 L436.4,421.9 L418.9,425.6 L401.5,428.9 L384.0,431.7 L366.5,434.0 L349.1,435.8 L331.6,437.1 L314.2,437.8 L296.7,438.0 L279.3,437.6 L261.8,436.7 L244.4,435.2 L226.9,433.2 L209.5,430.7 L192.0,427.7 L174.5,424.3 L157.1,420.4 L139.6,416.1 L122.2,411.4 L104.7,406.4 L87.3,401.1 L69.8,395.6 L52.4,389.9 L34.9,384.0 L17.5,378.0 L0.0,372.0 Z" fill="url(#wv)" opacity="0.95"></path>
<path d="M0.0,306.5 L17.5,311.5 L34.9,316.2 L52.4,320.4 L69.8,324.3 L87.3,327.8 L104.7,330.8 L122.2,333.3 L139.6,335.3 L157.1,336.7 L174.5,337.6 L192.0,338.0 L209.5,337.8 L226.9,337.1 L244.4,335.8 L261.8,334.0 L279.3,331.7 L296.7,328.8 L314.2,325.6 L331.6,321.8 L349.1,317.6 L366.5,313.1 L384.0,308.2 L401.5,303.0 L418.9,297.6 L436.4,291.9 L453.8,286.1 L471.3,280.2 L488.7,274.2 L506.2,268.1 L523.6,262.1 L541.1,256.2 L558.5,250.4 L576.0,244.8 L593.5,239.5 L610.9,234.3 L628.4,229.6 L645.8,225.1 L663.3,221.1 L680.7,217.5 L698.2,214.3 L715.6,211.6 L733.1,209.4 L750.5,207.8 L768.0,206.7 L785.5,206.1 L802.9,206.1 L820.4,206.6 L837.8,207.7 L855.3,209.3 L872.7,211.4 L890.2,214.0 L907.6,217.2 L925.1,220.7 L942.5,224.7 L960.0,229.1 L977.5,233.9 L994.9,239.0 L1012.4,244.3 L1029.8,249.9 L1047.3,255.7 L1064.7,261.6 L1082.2,267.6 L1099.6,273.6 L1117.1,279.6 L1134.5,285.6 L1152.0,291.4 L1169.5,297.1 L1186.9,302.6 L1204.4,307.8 L1221.8,312.7 L1239.3,317.3 L1256.7,321.5 L1274.2,325.2 L1291.6,328.6 L1309.1,331.4 L1326.5,333.8 L1344.0,335.7 L1361.5,337.0 L1378.9,337.8 L1396.4,338.0 L1413.8,337.7 L1431.3,336.8 L1448.7,335.4 L1466.2,333.5 L1483.6,331.0 L1501.1,328.1 L1518.5,324.7 L1536.0,320.8 L1553.5,316.5 L1570.9,311.9 L1588.4,307.0 L1605.8,301.7 L1623.3,296.2 L1640.7,290.5 L1658.2,284.6 L1675.6,278.7 L1693.1,272.6 L1710.5,266.6 L1728.0,260.6 L1745.5,254.8 L1762.9,249.0 L1780.4,243.5 L1797.8,238.1 L1815.3,233.1 L1832.7,228.4 L1850.2,224.1 L1867.6,220.1 L1885.1,216.6 L1902.5,213.6 L1920.0,211.0 L1920.0,263.0 L1902.5,265.6 L1885.1,268.6 L1867.6,272.1 L1850.2,276.1 L1832.7,280.4 L1815.3,285.1 L1797.8,290.1 L1780.4,295.5 L1762.9,301.0 L1745.5,306.8 L1728.0,312.6 L1710.5,318.6 L1693.1,324.6 L1675.6,330.7 L1658.2,336.6 L1640.7,342.5 L1623.3,348.2 L1605.8,353.7 L1588.4,359.0 L1570.9,363.9 L1553.5,368.5 L1536.0,372.8 L1518.5,376.7 L1501.1,380.1 L1483.6,383.0 L1466.2,385.5 L1448.7,387.4 L1431.3,388.8 L1413.8,389.7 L1396.4,390.0 L1378.9,389.8 L1361.5,389.0 L1344.0,387.7 L1326.5,385.8 L1309.1,383.4 L1291.6,380.6 L1274.2,377.2 L1256.7,373.5 L1239.3,369.3 L1221.8,364.7 L1204.4,359.8 L1186.9,354.6 L1169.5,349.1 L1152.0,343.4 L1134.5,337.6 L1117.1,331.6 L1099.6,325.6 L1082.2,319.6 L1064.7,313.6 L1047.3,307.7 L1029.8,301.9 L1012.4,296.3 L994.9,291.0 L977.5,285.9 L960.0,281.1 L942.5,276.7 L925.1,272.7 L907.6,269.2 L890.2,266.0 L872.7,263.4 L855.3,261.3 L837.8,259.7 L820.4,258.6 L802.9,258.1 L785.5,258.1 L768.0,258.7 L750.5,259.8 L733.1,261.4 L715.6,263.6 L698.2,266.3 L680.7,269.5 L663.3,273.1 L645.8,277.1 L628.4,281.6 L610.9,286.3 L593.5,291.5 L576.0,296.8 L558.5,302.4 L541.1,308.2 L523.6,314.1 L506.2,320.1 L488.7,326.2 L471.3,332.2 L453.8,338.1 L436.4,343.9 L418.9,349.6 L401.5,355.0 L384.0,360.2 L366.5,365.1 L349.1,369.6 L331.6,373.8 L314.2,377.6 L296.7,380.8 L279.3,383.7 L261.8,386.0 L244.4,387.8 L226.9,389.1 L209.5,389.8 L192.0,390.0 L174.5,389.6 L157.1,388.7 L139.6,387.3 L122.2,385.3 L104.7,382.8 L87.3,379.8 L69.8,376.3 L52.4,372.4 L34.9,368.2 L17.5,363.5 L0.0,358.5 Z" fill="url(#wv)" opacity="0.6"></path>
<path d="M0.0,242.5 L17.5,247.3 L34.9,252.4 L52.4,257.7 L69.8,263.3 L87.3,269.1 L104.7,275.0 L122.2,281.0 L139.6,287.1 L157.1,293.1 L174.5,299.0 L192.0,304.8 L209.5,310.5 L226.9,316.0 L244.4,321.1 L261.8,326.0 L279.3,330.6 L296.7,334.7 L314.2,338.5 L331.6,341.8 L349.1,344.6 L366.5,347.0 L384.0,348.8 L401.5,350.1 L418.9,350.8 L436.4,351.0 L453.8,350.6 L471.3,349.7 L488.7,348.3 L506.2,346.3 L523.6,343.8 L541.1,340.8 L558.5,337.4 L576.0,333.5 L593.5,329.2 L610.9,324.6 L628.4,319.6 L645.8,314.3 L663.3,308.8 L680.7,303.1 L698.2,297.2 L715.6,291.2 L733.1,285.2 L750.5,279.2 L768.0,273.2 L785.5,267.3 L802.9,261.6 L820.4,256.1 L837.8,250.8 L855.3,245.8 L872.7,241.1 L890.2,236.8 L907.6,232.9 L925.1,229.4 L942.5,226.4 L960.0,223.9 L977.5,221.8 L994.9,220.4 L1012.4,219.4 L1029.8,219.0 L1047.3,219.2 L1064.7,219.9 L1082.2,221.1 L1099.6,222.9 L1117.1,225.2 L1134.5,228.0 L1152.0,231.3 L1169.5,235.0 L1186.9,239.1 L1204.4,243.6 L1221.8,248.5 L1239.3,253.7 L1256.7,259.1 L1274.2,264.8 L1291.6,270.6 L1309.1,276.5 L1326.5,282.5 L1344.0,288.6 L1361.5,294.6 L1378.9,300.5 L1396.4,306.3 L1413.8,311.9 L1431.3,317.3 L1448.7,322.4 L1466.2,327.2 L1483.6,331.7 L1501.1,335.7 L1518.5,339.4 L1536.0,342.6 L1553.5,345.3 L1570.9,347.5 L1588.4,349.1 L1605.8,350.3 L1623.3,350.9 L1640.7,351.0 L1658.2,350.5 L1675.6,349.4 L1693.1,347.8 L1710.5,345.7 L1728.0,343.1 L1745.5,340.0 L1762.9,336.5 L1780.4,332.5 L1797.8,328.1 L1815.3,323.4 L1832.7,318.3 L1850.2,312.9 L1867.6,307.4 L1885.1,301.6 L1902.5,295.7 L1920.0,289.7 L1920.0,315.7 L1902.5,321.7 L1885.1,327.6 L1867.6,333.4 L1850.2,338.9 L1832.7,344.3 L1815.3,349.4 L1797.8,354.1 L1780.4,358.5 L1762.9,362.5 L1745.5,366.0 L1728.0,369.1 L1710.5,371.7 L1693.1,373.8 L1675.6,375.4 L1658.2,376.5 L1640.7,377.0 L1623.3,376.9 L1605.8,376.3 L1588.4,375.1 L1570.9,373.5 L1553.5,371.3 L1536.0,368.6 L1518.5,365.4 L1501.1,361.7 L1483.6,357.7 L1466.2,353.2 L1448.7,348.4 L1431.3,343.3 L1413.8,337.9 L1396.4,332.3 L1378.9,326.5 L1361.5,320.6 L1344.0,314.6 L1326.5,308.5 L1309.1,302.5 L1291.6,296.6 L1274.2,290.8 L1256.7,285.1 L1239.3,279.7 L1221.8,274.5 L1204.4,269.6 L1186.9,265.1 L1169.5,261.0 L1152.0,257.3 L1134.5,254.0 L1117.1,251.2 L1099.6,248.9 L1082.2,247.1 L1064.7,245.9 L1047.3,245.2 L1029.8,245.0 L1012.4,245.4 L994.9,246.4 L977.5,247.8 L960.0,249.9 L942.5,252.4 L925.1,255.4 L907.6,258.9 L890.2,262.8 L872.7,267.1 L855.3,271.8 L837.8,276.8 L820.4,282.1 L802.9,287.6 L785.5,293.3 L768.0,299.2 L750.5,305.2 L733.1,311.2 L715.6,317.2 L698.2,323.2 L680.7,329.1 L663.3,334.8 L645.8,340.3 L628.4,345.6 L610.9,350.6 L593.5,355.2 L576.0,359.5 L558.5,363.4 L541.1,366.8 L523.6,369.8 L506.2,372.3 L488.7,374.3 L471.3,375.7 L453.8,376.6 L436.4,377.0 L418.9,376.8 L401.5,376.1 L384.0,374.8 L366.5,373.0 L349.1,370.6 L331.6,367.8 L314.2,364.5 L296.7,360.7 L279.3,356.6 L261.8,352.0 L244.4,347.1 L226.9,342.0 L209.5,336.5 L192.0,330.8 L174.5,325.0 L157.1,319.1 L139.6,313.1 L122.2,307.0 L104.7,301.0 L87.3,295.1 L69.8,289.3 L52.4,283.7 L34.9,278.4 L17.5,273.3 L0.0,268.5 Z" fill="#ffffff" opacity="0.12"></path>
</svg>