<svg xmlns="http://www.w3.org/2000/svg" width="49.500" height="38" viewBox="0 0 49.500 38" fill="none">
  <path d="M 14.5 14.5 C 14.398 13.155 19 0 20.5 0 C 22 0 25.294 7.674 27.5 11 C 34.759 8.91 38.457 7.285 43.5 2.5 C 43.587 8.393 41.854 11.487 34.5 16.5 L 34.5 20 C 41.147 24.667 44.248 24.976 49.5 24.5 C 47.315 26.869 43.503 28.326 37.5 29.5 C 32.261 30.861 25 29.5 25 29.5 C 25 29.5 18.125 37.609 18.5 38 C 16.095 37.187 15.673 35.714 15 33 L 14.5 24 C 7.19 23.166 4.15 21.351 0 16.5 C 5.169 16.003 14.602 15.845 14.5 14.5 Z" fill="currentColor" fill-rule="nonzero"></path>
  <path d="M 27.5 11 L 27.083 11.276 L 27.286 11.582 L 27.638 11.48 L 27.5 11 Z M 43.5 2.5 L 44 2.493 L 43.983 1.352 L 43.156 2.137 L 43.5 2.5 Z M 34.5 16.5 L 34.218 16.087 L 34 16.236 L 34 16.5 L 34.5 16.5 Z M 34.5 20 L 34 20 L 34 20.26 L 34.213 20.409 L 34.5 20 Z M 49.5 24.5 L 49.868 24.839 L 50.748 23.885 L 49.455 24.002 L 49.5 24.5 Z M 37.5 29.5 L 37.404 29.009 L 37.389 29.012 L 37.374 29.016 L 37.5 29.5 Z M 25 29.5 L 25.092 29.009 L 24.807 28.955 L 24.619 29.177 L 25 29.5 Z M 18.5 38 L 18.34 38.474 L 18.861 37.654 L 18.5 38 Z M 15 33 L 14.501 33.028 L 14.503 33.075 L 14.515 33.12 L 15 33 Z M 14.5 24 L 14.999 23.972 L 14.976 23.551 L 14.557 23.503 L 14.5 24 Z M 0 16.5 L -0.048 16.002 L -1.005 16.094 L -0.38 16.825 L 0 16.5 Z M 14.5 14.5 L 14.999 14.462 C 14.999 14.462 14.998 14.461 14.998 14.457 C 14.998 14.453 14.998 14.448 14.998 14.441 C 14.999 14.427 15 14.409 15.002 14.385 C 15.006 14.337 15.014 14.275 15.027 14.198 C 15.053 14.044 15.095 13.847 15.153 13.609 C 15.269 13.135 15.443 12.521 15.661 11.815 C 16.098 10.404 16.707 8.644 17.366 6.925 C 18.026 5.203 18.732 3.536 19.361 2.304 C 19.676 1.686 19.964 1.195 20.209 0.866 C 20.332 0.7 20.431 0.593 20.504 0.532 C 20.589 0.462 20.581 0.5 20.5 0.5 L 20.5 0 L 20.5 -0.5 C 20.231 -0.5 20.012 -0.359 19.864 -0.236 C 19.705 -0.104 19.552 0.073 19.406 0.27 C 19.112 0.665 18.795 1.213 18.47 1.849 C 17.818 3.126 17.098 4.831 16.432 6.567 C 15.766 8.304 15.15 10.085 14.706 11.519 C 14.484 12.236 14.304 12.87 14.181 13.373 C 14.12 13.623 14.072 13.846 14.041 14.033 C 14.012 14.208 13.99 14.389 14.001 14.538 L 14.5 14.5 Z M 20.5 0 L 20.5 0.5 C 20.491 0.5 20.585 0.507 20.805 0.706 C 21.005 0.888 21.242 1.169 21.51 1.543 C 22.046 2.288 22.655 3.328 23.297 4.494 C 24.566 6.795 25.965 9.591 27.083 11.276 L 27.5 11 L 27.917 10.724 C 26.828 9.083 25.478 6.379 24.173 4.011 C 23.529 2.843 22.895 1.757 22.322 0.959 C 22.037 0.562 21.753 0.217 21.477 -0.034 C 21.221 -0.267 20.884 -0.5 20.5 -0.5 L 20.5 0 Z M 27.5 11 L 27.638 11.48 C 31.275 10.433 34.052 9.494 36.559 8.205 C 39.073 6.913 41.296 5.28 43.844 2.863 L 43.5 2.5 L 43.156 2.137 C 40.66 4.505 38.513 6.077 36.102 7.316 C 33.685 8.558 30.984 9.476 27.362 10.52 L 27.5 11 Z M 43.5 2.5 L 43 2.507 C 43.043 5.399 42.639 7.539 41.367 9.564 C 40.082 11.61 37.882 13.59 34.218 16.087 L 34.5 16.5 L 34.782 16.913 C 38.472 14.397 40.815 12.323 42.214 10.096 C 43.625 7.848 44.044 5.494 44 2.493 L 43.5 2.5 Z M 34.5 16.5 L 34 16.5 L 34 20 L 34.5 20 L 35 20 L 35 16.5 L 34.5 16.5 Z M 34.5 20 L 34.213 20.409 C 37.558 22.758 40.051 24.039 42.395 24.662 C 44.744 25.286 46.903 25.238 49.545 24.998 L 49.5 24.5 L 49.455 24.002 C 46.846 24.239 44.828 24.274 42.652 23.695 C 40.47 23.116 38.089 21.909 34.787 19.591 L 34.5 20 Z M 49.5 24.5 L 49.132 24.161 C 47.067 26.401 43.402 27.837 37.404 29.009 L 37.5 29.5 L 37.596 29.991 C 43.605 28.816 47.563 27.337 49.868 24.839 L 49.5 24.5 Z M 37.5 29.5 L 37.374 29.016 C 34.834 29.676 31.773 29.681 29.32 29.512 C 28.099 29.428 27.039 29.301 26.285 29.196 C 25.909 29.144 25.609 29.096 25.404 29.063 C 25.301 29.046 25.223 29.032 25.17 29.023 C 25.144 29.018 25.124 29.014 25.111 29.012 C 25.104 29.011 25.099 29.01 25.096 29.009 C 25.095 29.009 25.094 29.009 25.093 29.009 C 25.093 29.009 25.092 29.009 25.092 29.009 C 25.092 29.009 25.092 29.009 25.092 29.009 C 25.092 29.009 25.092 29.009 25 29.5 C 24.908 29.991 24.908 29.991 24.908 29.991 C 24.908 29.991 24.908 29.992 24.908 29.992 C 24.909 29.992 24.909 29.992 24.91 29.992 C 24.911 29.992 24.912 29.992 24.914 29.993 C 24.918 29.993 24.924 29.994 24.931 29.996 C 24.946 29.998 24.968 30.002 24.996 30.007 C 25.052 30.017 25.134 30.032 25.241 30.049 C 25.453 30.084 25.761 30.133 26.147 30.187 C 26.919 30.294 28.002 30.423 29.251 30.509 C 31.738 30.681 34.927 30.685 37.626 29.984 L 37.5 29.5 Z M 25 29.5 C 24.619 29.177 24.619 29.177 24.619 29.177 C 24.618 29.177 24.618 29.177 24.618 29.177 C 24.618 29.177 24.618 29.178 24.617 29.178 C 24.616 29.179 24.615 29.181 24.613 29.183 C 24.61 29.187 24.605 29.193 24.599 29.2 C 24.586 29.216 24.566 29.239 24.541 29.268 C 24.49 29.328 24.417 29.416 24.323 29.527 C 24.135 29.75 23.867 30.069 23.548 30.453 C 22.908 31.221 22.058 32.249 21.22 33.29 C 20.383 34.329 19.552 35.388 18.953 36.213 C 18.655 36.624 18.405 36.989 18.241 37.269 C 18.16 37.407 18.087 37.544 18.042 37.667 C 18.02 37.727 17.994 37.81 17.987 37.904 C 17.981 37.984 17.981 38.181 18.139 38.346 L 18.5 38 L 18.861 37.654 C 18.995 37.794 18.986 37.952 18.984 37.979 C 18.981 38.019 18.973 38.034 18.98 38.013 C 18.995 37.974 19.031 37.898 19.103 37.776 C 19.242 37.538 19.469 37.205 19.762 36.801 C 20.346 35.996 21.164 34.954 21.999 33.917 C 22.832 32.882 23.678 31.858 24.316 31.093 C 24.635 30.711 24.901 30.393 25.088 30.171 C 25.181 30.06 25.255 29.973 25.305 29.914 C 25.33 29.884 25.349 29.862 25.362 29.846 C 25.368 29.839 25.373 29.833 25.377 29.829 C 25.378 29.827 25.379 29.826 25.38 29.825 C 25.381 29.824 25.381 29.824 25.381 29.824 C 25.381 29.824 25.381 29.823 25.381 29.823 C 25.381 29.823 25.381 29.823 25 29.5 Z M 18.5 38 L 18.66 37.526 C 17.55 37.151 16.948 36.647 16.528 35.954 C 16.085 35.222 15.826 34.256 15.485 32.88 L 15 33 L 14.515 33.12 C 14.846 34.458 15.135 35.586 15.673 36.472 C 16.233 37.398 17.044 38.036 18.34 38.474 L 18.5 38 Z M 15 33 L 15.499 32.972 L 14.999 23.972 L 14.5 24 L 14.001 24.028 L 14.501 33.028 L 15 33 Z M 14.5 24 L 14.557 23.503 C 10.931 23.089 8.414 22.437 6.299 21.315 C 4.187 20.193 2.437 18.58 0.38 16.175 L 0 16.5 L -0.38 16.825 C 1.713 19.271 3.558 20.991 5.83 22.198 C 8.101 23.404 10.758 24.076 14.443 24.497 L 14.5 24 Z M 0 16.5 L 0.048 16.998 C 1.331 16.874 2.882 16.772 4.493 16.666 C 6.101 16.56 7.768 16.451 9.271 16.316 C 10.77 16.181 12.128 16.017 13.113 15.798 C 13.6 15.689 14.032 15.56 14.348 15.395 C 14.62 15.255 15.037 14.966 14.999 14.462 L 14.5 14.5 L 14.001 14.538 C 13.989 14.37 14.133 14.38 13.888 14.508 C 13.688 14.611 13.359 14.719 12.896 14.822 C 11.979 15.026 10.675 15.185 9.182 15.32 C 7.693 15.454 6.039 15.562 4.428 15.668 C 2.82 15.774 1.253 15.877 -0.048 16.002 L 0 16.5 Z" fill="currentColor" fill-rule="nonzero"></path>
</svg>